<?xml version="1.0" encoding="UTF-8"?>
<!DOCTYPE svg PUBLIC "-//W3C//DTD SVG 1.1//EN" "http://www.w3.org/Graphics/SVG/1.1/DTD/svg11.dtd">
<svg xmlns="http://www.w3.org/2000/svg" version="1.1" width="1000px" height="906px" style="shape-rendering:geometricPrecision; text-rendering:geometricPrecision; image-rendering:optimizeQuality; fill-rule:evenodd; clip-rule:evenodd" xmlns:xlink="http://www.w3.org/1999/xlink">
<g><path style="opacity:1" fill="#fefefe" d="M -0.5,-0.5 C 216.5,-0.5 433.5,-0.5 650.5,-0.5C 633.234,2.22773 621.734,11.8944 616,28.5C 615.252,35.6036 615.752,42.6036 617.5,49.5C 618.299,56.7544 618.799,64.0877 619,71.5C 620.218,76.3749 621.885,81.0416 624,85.5C 624.785,87.286 625.951,88.786 627.5,90C 626.584,90.2784 625.918,90.7784 625.5,91.5C 604.619,97.3752 589.952,110.375 581.5,130.5C 568.999,127.944 556.832,124.277 545,119.5C 543.37,120.818 543.203,122.151 544.5,123.5C 547.564,128.918 549.897,134.251 551.5,139.5C 466.606,138.147 384.94,153.481 306.5,185.5C 305.515,181.366 305.182,177.032 305.5,172.5C 305.814,168.468 304.481,165.135 301.5,162.5C 301.817,159.428 301.484,156.428 300.5,153.5C 297.579,152.593 294.579,152.26 291.5,152.5C 291.5,155.5 291.5,158.5 291.5,161.5C 288.769,164.634 287.436,168.301 287.5,172.5C 287.5,177.167 287.5,181.833 287.5,186.5C 287.736,189.609 287.403,192.609 286.5,195.5C 281.833,197.5 277.167,199.5 272.5,201.5C 270.33,182.314 260.997,167.814 244.5,158C 236.209,153.737 227.542,150.57 218.5,148.5C 218.988,142.463 219.655,136.463 220.5,130.5C 227.719,100.444 216.053,82.9437 185.5,78C 148.111,76.3953 131.944,94.2286 137,131.5C 137.333,134.5 137.667,137.5 138,140.5C 138.671,141.252 139.504,141.586 140.5,141.5C 141.681,149.238 145.014,156.072 150.5,162C 149.944,162.383 149.611,162.883 149.5,163.5C 146.666,168.168 144.666,173.168 143.5,178.5C 141.18,181.321 140.013,184.654 140,188.5C 139.333,196.5 139.333,204.5 140,212.5C 141.025,223.094 144.858,232.428 151.5,240.5C 155.541,254.252 162.875,265.919 173.5,275.5C 167.241,284.271 160.741,292.938 154,301.5C 120.268,349.548 110.102,402.214 123.5,459.5C 123.167,459.5 122.833,459.5 122.5,459.5C 119.518,458.835 116.352,458.502 113,458.5C 105.147,459.004 97.3137,459.67 89.5,460.5C 98.8019,444.314 100.802,427.314 95.5,409.5C 97.2642,395.996 94.9308,383.329 88.5,371.5C 84.6595,373.835 80.4929,374.835 76,374.5C 69.0519,373.631 62.2185,372.131 55.5,370C 24.6054,366.455 5.93873,379.622 -0.5,409.5C -0.5,272.833 -0.5,136.167 -0.5,-0.5 Z"/></g>
<g><path style="opacity:1" fill="#e9c264" d="M 650.5,-0.5 C 655.833,-0.5 661.167,-0.5 666.5,-0.5C 683.31,0.973651 694.643,9.64032 700.5,25.5C 706.051,28.2136 709.551,32.5469 711,38.5C 709.349,50.4005 708.682,62.4005 709,74.5C 709.734,79.3009 711.567,83.6342 714.5,87.5C 713.91,88.7989 712.91,89.6322 711.5,90C 706.225,91.3585 700.891,91.6919 695.5,91C 693.677,90.0027 692.01,88.8361 690.5,87.5C 686.189,82.8871 684.855,77.5538 686.5,71.5C 690.302,67.7288 692.635,63.2288 693.5,58C 694.045,50.6288 690.711,47.2955 683.5,48C 681.396,50.0424 680.229,52.5424 680,55.5C 679.275,56.0585 678.442,56.3918 677.5,56.5C 671.477,54.9941 665.477,53.4941 659.5,52C 649.282,47.5584 641.615,40.3918 636.5,30.5C 635.667,30.1667 634.833,29.8333 634,29.5C 629.786,31.0449 626.453,33.7116 624,37.5C 622.014,41.8205 619.847,45.8205 617.5,49.5C 615.752,42.6036 615.252,35.6036 616,28.5C 621.734,11.8944 633.234,2.22773 650.5,-0.5 Z"/></g>
<g><path style="opacity:1" fill="#fefefe" d="M 666.5,-0.5 C 777.5,-0.5 888.5,-0.5 999.5,-0.5C 999.5,195.5 999.5,391.5 999.5,587.5C 997.766,584.8 995.432,582.8 992.5,581.5C 992.722,570.708 990.722,560.375 986.5,550.5C 988.105,548.52 989.272,546.187 990,543.5C 994.876,526.824 997.209,509.824 997,492.5C 994.209,483.918 991.709,475.251 989.5,466.5C 981.565,463.851 973.565,461.851 965.5,460.5C 975.339,424.973 974.672,389.64 963.5,354.5C 969.91,347.683 974.244,339.683 976.5,330.5C 979.342,329.828 981.842,328.494 984,326.5C 992.95,311.75 996.283,295.75 994,278.5C 993.153,276.807 992.32,275.14 991.5,273.5C 991.788,258.339 986.121,246.005 974.5,236.5C 971.661,234.58 968.661,232.913 965.5,231.5C 968.464,229.038 971.297,226.371 974,223.5C 975.511,220.204 976.677,216.871 977.5,213.5C 990.879,195.3 994.379,175.3 988,153.5C 981.708,139.167 970.875,132.334 955.5,133C 910.509,133.444 894.675,155.278 908,198.5C 909.045,199.373 909.878,200.373 910.5,201.5C 910.483,212.452 914.483,221.452 922.5,228.5C 918.168,228.279 914.168,229.279 910.5,231.5C 901.725,235.054 893.725,239.887 886.5,246C 885.552,246.483 884.552,246.649 883.5,246.5C 845.293,215.217 802.626,191.383 755.5,175C 733.98,167.545 712.313,161.045 690.5,155.5C 703.062,142.813 705.895,128.146 699,111.5C 696.992,106.809 694.492,102.476 691.5,98.5C 689.806,96.1394 687.806,94.1394 685.5,92.5C 686.167,89.8333 687.833,88.1667 690.5,87.5C 692.01,88.8361 693.677,90.0027 695.5,91C 700.891,91.6919 706.225,91.3585 711.5,90C 712.91,89.6322 713.91,88.7989 714.5,87.5C 711.567,83.6342 709.734,79.3009 709,74.5C 708.682,62.4005 709.349,50.4005 711,38.5C 709.551,32.5469 706.051,28.2136 700.5,25.5C 694.643,9.64032 683.31,0.973651 666.5,-0.5 Z"/></g>
<g><path style="opacity:1" fill="#fad6a2" d="M 690.5,87.5 C 687.833,88.1667 686.167,89.8333 685.5,92.5C 682.536,94.4483 679.536,96.4483 676.5,98.5C 675.127,112.698 667.294,119.032 653,117.5C 646.78,118.097 640.947,116.931 635.5,114C 633.951,112.786 632.785,111.286 632,109.5C 631.228,105.11 631.394,100.777 632.5,96.5C 630.957,93.6095 628.624,91.9429 625.5,91.5C 625.918,90.7784 626.584,90.2784 627.5,90C 625.951,88.786 624.785,87.286 624,85.5C 621.885,81.0416 620.218,76.3749 619,71.5C 618.799,64.0877 618.299,56.7544 617.5,49.5C 619.847,45.8205 622.014,41.8205 624,37.5C 626.453,33.7116 629.786,31.0449 634,29.5C 634.833,29.8333 635.667,30.1667 636.5,30.5C 641.615,40.3918 649.282,47.5584 659.5,52C 665.477,53.4941 671.477,54.9941 677.5,56.5C 678.442,56.3918 679.275,56.0585 680,55.5C 680.229,52.5424 681.396,50.0424 683.5,48C 690.711,47.2955 694.045,50.6288 693.5,58C 692.635,63.2288 690.302,67.7288 686.5,71.5C 684.855,77.5538 686.189,82.8871 690.5,87.5 Z"/></g>
<g><path style="opacity:1" fill="#2e2e2e" d="M 220.5,130.5 C 219.679,127.359 219.179,124.025 219,120.5C 218.204,118.033 216.537,116.7 214,116.5C 208.495,119.334 202.662,121.167 196.5,122C 186.154,122.348 175.82,122.348 165.5,122C 160.697,126.441 158.197,131.941 158,138.5C 156.736,140.607 154.903,141.607 152.5,141.5C 152.665,138.482 152.498,135.482 152,132.5C 149.744,127.585 146.91,127.251 143.5,131.5C 142.135,134.842 141.135,138.175 140.5,141.5C 139.504,141.586 138.671,141.252 138,140.5C 137.667,137.5 137.333,134.5 137,131.5C 131.944,94.2286 148.111,76.3953 185.5,78C 216.053,82.9437 227.719,100.444 220.5,130.5 Z"/></g>
<g><path style="opacity:1" fill="#ab4b33" d="M 625.5,91.5 C 628.624,91.9429 630.957,93.6095 632.5,96.5C 631.394,100.777 631.228,105.11 632,109.5C 632.785,111.286 633.951,112.786 635.5,114C 640.947,116.931 646.78,118.097 653,117.5C 667.294,119.032 675.127,112.698 676.5,98.5C 679.536,96.4483 682.536,94.4483 685.5,92.5C 687.806,94.1394 689.806,96.1394 691.5,98.5C 687.529,99.4618 683.529,101.128 679.5,103.5C 679.747,106.505 678.747,109.005 676.5,111C 676.854,117.04 678.188,122.873 680.5,128.5C 679.857,140.101 674.19,147.434 663.5,150.5C 647.178,148.085 630.844,145.751 614.5,143.5C 614.5,138.167 614.5,132.833 614.5,127.5C 614.5,125.833 614.5,124.167 614.5,122.5C 615.428,115.843 616.928,109.176 619,102.5C 620.159,98.1888 622.325,94.5221 625.5,91.5 Z"/></g>
<g><path style="opacity:1" fill="#b55542" d="M 625.5,91.5 C 622.325,94.5221 620.159,98.1888 619,102.5C 616.928,109.176 615.428,115.843 614.5,122.5C 614.631,121.624 614.298,120.957 613.5,120.5C 606.396,123.935 601.396,129.268 598.5,136.5C 593.114,135.319 587.781,133.819 582.5,132C 581.944,131.617 581.611,131.117 581.5,130.5C 589.952,110.375 604.619,97.3752 625.5,91.5 Z"/></g>
<g><path style="opacity:1" fill="#b45441" d="M 691.5,98.5 C 694.492,102.476 696.992,106.809 699,111.5C 705.895,128.146 703.062,142.813 690.5,155.5C 687.808,157.862 685.141,160.196 682.5,162.5C 676.642,161.987 670.975,162.654 665.5,164.5C 664.571,165.689 664.238,167.022 664.5,168.5C 664.5,169.5 664.5,170.5 664.5,171.5C 661.921,171.394 659.588,172.061 657.5,173.5C 654.002,174.917 650.335,175.583 646.5,175.5C 645.171,171.178 643.837,166.845 642.5,162.5C 645.232,161.134 647.899,159.801 650.5,158.5C 654.362,157.572 658.029,156.072 661.5,154C 662.823,153.184 663.489,152.017 663.5,150.5C 674.19,147.434 679.857,140.101 680.5,128.5C 678.188,122.873 676.854,117.04 676.5,111C 678.747,109.005 679.747,106.505 679.5,103.5C 683.529,101.128 687.529,99.4618 691.5,98.5 Z"/></g>
<g><path style="opacity:1" fill="#f9d5a2" d="M 220.5,130.5 C 219.655,136.463 218.988,142.463 218.5,148.5C 217.232,150.905 216.565,153.572 216.5,156.5C 211.785,169.381 202.452,176.215 188.5,177C 181.025,177.861 173.691,177.194 166.5,175C 160.114,172.094 154.447,168.26 149.5,163.5C 149.611,162.883 149.944,162.383 150.5,162C 145.014,156.072 141.681,149.238 140.5,141.5C 141.135,138.175 142.135,134.842 143.5,131.5C 146.91,127.251 149.744,127.585 152,132.5C 152.498,135.482 152.665,138.482 152.5,141.5C 154.903,141.607 156.736,140.607 158,138.5C 158.197,131.941 160.697,126.441 165.5,122C 175.82,122.348 186.154,122.348 196.5,122C 202.662,121.167 208.495,119.334 214,116.5C 216.537,116.7 218.204,118.033 219,120.5C 219.179,124.025 219.679,127.359 220.5,130.5 Z"/></g>
<g><path style="opacity:1" fill="#fbfaf9" d="M 614.5,122.5 C 614.5,124.167 614.5,125.833 614.5,127.5C 613.513,132.305 613.179,137.305 613.5,142.5C 611.396,142.799 609.396,142.466 607.5,141.5C 604.597,139.645 601.597,137.978 598.5,136.5C 601.396,129.268 606.396,123.935 613.5,120.5C 614.298,120.957 614.631,121.624 614.5,122.5 Z"/></g>
<g><path style="opacity:1" fill="#747b7b" d="M 631.5,184.5 C 628.834,184.067 626.168,183.567 623.5,183C 604.074,175.628 584.408,168.794 564.5,162.5C 560.965,154.436 556.632,146.769 551.5,139.5C 549.897,134.251 547.564,128.918 544.5,123.5C 545.601,122.402 546.934,122.235 548.5,123C 567.13,129.266 585.797,135.432 604.5,141.5C 613.922,155.584 622.922,169.918 631.5,184.5 Z"/></g>
<g><path style="opacity:1" fill="#535852" d="M 977.5,213.5 C 974.497,209.13 971.83,204.463 969.5,199.5C 975.078,195.995 976.911,190.995 975,184.5C 971.101,176.933 966.767,176.599 962,183.5C 962.658,177.088 960.824,171.588 956.5,167C 945.608,164.93 934.608,163.43 923.5,162.5C 923.5,163.833 923.5,165.167 923.5,166.5C 919.818,166.335 916.152,166.501 912.5,167C 911.874,167.75 911.374,168.584 911,169.5C 910.977,180.341 910.81,191.008 910.5,201.5C 909.878,200.373 909.045,199.373 908,198.5C 894.675,155.278 910.509,133.444 955.5,133C 970.875,132.334 981.708,139.167 988,153.5C 994.379,175.3 990.879,195.3 977.5,213.5 Z"/></g>
<g><path style="opacity:1" fill="#1d5b82" d="M 551.5,139.5 C 556.632,146.769 560.965,154.436 564.5,162.5C 584.408,168.794 604.074,175.628 623.5,183C 626.168,183.567 628.834,184.067 631.5,184.5C 631.897,185.525 632.563,185.692 633.5,185C 636.571,182.482 639.571,179.982 642.5,177.5C 643.995,177.011 645.329,176.345 646.5,175.5C 650.335,175.583 654.002,174.917 657.5,173.5C 654.982,181.378 657.648,186.378 665.5,188.5C 665.213,195.713 668.713,198.713 676,197.5C 678.925,197.477 681.759,196.977 684.5,196C 685.965,186.928 686.965,177.762 687.5,168.5C 687.251,165.256 685.584,163.256 682.5,162.5C 685.141,160.196 687.808,157.862 690.5,155.5C 712.313,161.045 733.98,167.545 755.5,175C 802.626,191.383 845.293,215.217 883.5,246.5C 880.91,250.595 877.744,254.262 874,257.5C 872.667,260.167 871.333,262.833 870,265.5C 868.408,273.737 866.908,281.737 865.5,289.5C 848.711,284.471 832.044,279.138 815.5,273.5C 814.081,272.549 812.415,272.216 810.5,272.5C 817.257,287.013 824.257,301.346 831.5,315.5C 834.216,315.678 836.883,316.178 839.5,317C 858.866,324.595 878.533,331.428 898.5,337.5C 902.601,335.944 906.268,333.61 909.5,330.5C 914.339,326.499 919.339,322.666 924.5,319C 925.823,318.184 926.489,317.017 926.5,315.5C 932.421,314.537 938.421,313.87 944.5,313.5C 951.147,327.121 957.48,340.787 963.5,354.5C 974.672,389.64 975.339,424.973 965.5,460.5C 959.017,459.982 952.517,459.649 946,459.5C 932.828,461.094 919.661,461.594 906.5,461C 902.081,469.529 901.414,478.362 904.5,487.5C 901.016,505.817 902.182,523.817 908,541.5C 909.604,545.048 911.437,548.382 913.5,551.5C 911.833,552.5 910.5,553.833 909.5,555.5C 901.49,555.356 893.49,555.023 885.5,554.5C 878.892,553.439 872.225,552.773 865.5,552.5C 857.313,544.48 849.313,536.313 841.5,528C 840.338,527.173 839.171,526.34 838,525.5C 828.257,531.623 818.757,538.123 809.5,545C 805.229,547.489 804.562,550.655 807.5,554.5C 813.198,560.197 818.532,566.197 823.5,572.5C 822.122,582.711 824.456,592.044 830.5,600.5C 832.833,603.833 835.167,607.167 837.5,610.5C 835.131,611.69 833.131,613.357 831.5,615.5C 749.012,659.123 661.012,682.123 567.5,684.5C 561.824,684.666 556.157,684.499 550.5,684C 555.881,678.284 560.047,671.784 563,664.5C 563.736,661.408 563.569,658.408 562.5,655.5C 566.021,649.332 567.354,642.665 566.5,635.5C 571.741,631.054 576.741,626.387 581.5,621.5C 582.322,609.169 582.989,596.835 583.5,584.5C 585.099,584.768 586.432,584.434 587.5,583.5C 642.058,578.699 692.724,562.199 739.5,534C 767.932,515.569 790.098,491.402 806,461.5C 824.719,416.707 819.385,375.04 790,336.5C 768.232,310.4 742.065,289.9 711.5,275C 652.186,247.788 589.852,235.788 524.5,239C 466.695,241.624 412.362,256.624 361.5,284C 331.861,300.304 308.028,322.804 290,351.5C 271.344,384.416 268.344,418.749 281,454.5C 289.854,476.353 303.02,495.186 320.5,511C 338.678,526.923 358.678,540.09 380.5,550.5C 376.154,562.187 375.321,574.187 378,586.5C 379.62,594.264 381.62,601.931 384,609.5C 385.958,614.59 388.792,619.09 392.5,623C 396.367,625.433 400.367,627.6 404.5,629.5C 405.306,630.728 406.306,631.728 407.5,632.5C 402.58,636.151 399.247,640.985 397.5,647C 395.752,653.708 395.086,660.542 395.5,667.5C 342.091,655.788 292.091,635.788 245.5,607.5C 241.181,604.004 236.515,601.004 231.5,598.5C 228.525,595.677 225.192,593.344 221.5,591.5C 219.393,589.273 217.06,587.273 214.5,585.5C 198.978,574.152 184.811,561.152 172,546.5C 171.517,545.552 171.351,544.552 171.5,543.5C 170.178,543.67 169.011,543.337 168,542.5C 162.283,535.008 156.783,527.341 151.5,519.5C 156.221,514.115 160.554,508.448 164.5,502.5C 166.302,500.042 167.635,497.375 168.5,494.5C 178.322,489.838 183.989,482.172 185.5,471.5C 186.163,469.958 186.83,468.291 187.5,466.5C 191.442,464.062 194.942,461.062 198,457.5C 198.743,454.217 198.076,451.217 196,448.5C 187.833,441 179.667,433.5 171.5,426C 167.88,425.159 164.546,425.826 161.5,428C 149.936,438.405 138.27,448.571 126.5,458.5C 125.791,459.404 124.791,459.737 123.5,459.5C 110.102,402.214 120.268,349.548 154,301.5C 160.741,292.938 167.241,284.271 173.5,275.5C 177.079,273.092 180.246,270.092 183,266.5C 183.483,265.552 183.649,264.552 183.5,263.5C 184.814,269.986 185.814,276.653 186.5,283.5C 186.5,284.5 186.5,285.5 186.5,286.5C 196.139,285.021 205.806,283.688 215.5,282.5C 215.5,281.5 215.5,280.5 215.5,279.5C 213.509,271.025 211.009,262.691 208,254.5C 204.602,253.966 201.102,253.966 197.5,254.5C 199.39,252.41 201.057,250.077 202.5,247.5C 205.206,247.575 207.873,247.908 210.5,248.5C 221.258,251.759 232.258,254.592 243.5,257C 247.5,257.667 251.5,257.667 255.5,257C 271.5,247.667 287.5,238.333 303.5,229C 305.439,228.092 306.439,226.592 306.5,224.5C 306.5,223.5 306.5,222.5 306.5,221.5C 296.056,219.639 285.722,217.305 275.5,214.5C 274.833,212.167 274.167,209.833 273.5,207.5C 272.85,205.565 272.517,203.565 272.5,201.5C 277.167,199.5 281.833,197.5 286.5,195.5C 287.326,199.982 287.826,204.649 288,209.5C 293.306,211.946 298.806,212.113 304.5,210C 305.482,202.253 305.815,194.42 305.5,186.5C 306.167,186.5 306.5,186.167 306.5,185.5C 384.94,153.481 466.606,138.147 551.5,139.5 Z"/></g>
<g><path style="opacity:1" fill="#265c80" d="M 612.5,143.5 C 613.167,143.5 613.833,143.5 614.5,143.5C 630.844,145.751 647.178,148.085 663.5,150.5C 663.489,152.017 662.823,153.184 661.5,154C 658.029,156.072 654.362,157.572 650.5,158.5C 637.763,153.481 625.096,148.481 612.5,143.5 Z"/></g>
<g><path style="opacity:1" fill="#8f929a" d="M 612.5,143.5 C 625.096,148.481 637.763,153.481 650.5,158.5C 647.899,159.801 645.232,161.134 642.5,162.5C 636.186,163.286 629.853,163.953 623.5,164.5C 622.469,163.751 621.302,163.085 620,162.5C 617.223,157.116 614.056,151.949 610.5,147C 611.167,146.667 611.833,146.333 612.5,146C 611.226,145.023 611.226,144.189 612.5,143.5 Z"/></g>
<g><path style="opacity:1" fill="#c5cacd" d="M 301.5,162.5 C 298.431,160.242 295.098,159.908 291.5,161.5C 291.5,158.5 291.5,155.5 291.5,152.5C 294.579,152.26 297.579,152.593 300.5,153.5C 301.484,156.428 301.817,159.428 301.5,162.5 Z"/></g>
<g><path style="opacity:1" fill="#585958" d="M 218.5,148.5 C 227.542,150.57 236.209,153.737 244.5,158C 260.997,167.814 270.33,182.314 272.5,201.5C 272.517,203.565 272.85,205.565 273.5,207.5C 270.75,205.302 267.583,203.968 264,203.5C 261.817,203.522 260.317,204.522 259.5,206.5C 256.739,198.512 252.072,191.679 245.5,186C 241.867,183.35 237.867,181.517 233.5,180.5C 229.866,173.923 225.7,167.59 221,161.5C 220.51,160.207 220.343,158.873 220.5,157.5C 219.041,157.567 217.708,157.234 216.5,156.5C 216.565,153.572 217.232,150.905 218.5,148.5 Z"/></g>
<g><path style="opacity:1" fill="#3f4140" d="M 216.5,156.5 C 217.708,157.234 219.041,157.567 220.5,157.5C 220.343,158.873 220.51,160.207 221,161.5C 225.7,167.59 229.866,173.923 233.5,180.5C 238.765,191.296 242.432,202.629 244.5,214.5C 244.586,215.496 244.252,216.329 243.5,217C 233.679,223.258 223.346,227.758 212.5,230.5C 207.023,230.793 202.023,232.46 197.5,235.5C 171.196,232.544 158.696,217.877 160,191.5C 157.81,181.339 152.31,177.005 143.5,178.5C 144.666,173.168 146.666,168.168 149.5,163.5C 154.447,168.26 160.114,172.094 166.5,175C 173.691,177.194 181.025,177.861 188.5,177C 202.452,176.215 211.785,169.381 216.5,156.5 Z"/></g>
<g><path style="opacity:1" fill="#9fa1a1" d="M 581.5,130.5 C 581.611,131.117 581.944,131.617 582.5,132C 587.781,133.819 593.114,135.319 598.5,136.5C 601.597,137.978 604.597,139.645 607.5,141.5C 609.396,142.466 611.396,142.799 613.5,142.5C 613.179,137.305 613.513,132.305 614.5,127.5C 614.5,132.833 614.5,138.167 614.5,143.5C 613.833,143.5 613.167,143.5 612.5,143.5C 611.226,144.189 611.226,145.023 612.5,146C 611.833,146.333 611.167,146.667 610.5,147C 614.056,151.949 617.223,157.116 620,162.5C 621.302,163.085 622.469,163.751 623.5,164.5C 624.128,169.144 626.128,173.144 629.5,176.5C 633.783,177.492 638.116,177.826 642.5,177.5C 639.571,179.982 636.571,182.482 633.5,185C 632.563,185.692 631.897,185.525 631.5,184.5C 622.922,169.918 613.922,155.584 604.5,141.5C 585.797,135.432 567.13,129.266 548.5,123C 546.934,122.235 545.601,122.402 544.5,123.5C 543.203,122.151 543.37,120.818 545,119.5C 556.832,124.277 568.999,127.944 581.5,130.5 Z"/></g>
<g><path style="opacity:1" fill="#fad6a2" d="M 977.5,213.5 C 976.677,216.871 975.511,220.204 974,223.5C 971.297,226.371 968.464,229.038 965.5,231.5C 955.849,235.265 945.849,236.432 935.5,235C 930.861,233.347 926.528,231.181 922.5,228.5C 914.483,221.452 910.483,212.452 910.5,201.5C 910.81,191.008 910.977,180.341 911,169.5C 911.374,168.584 911.874,167.75 912.5,167C 916.152,166.501 919.818,166.335 923.5,166.5C 923.5,165.167 923.5,163.833 923.5,162.5C 934.608,163.43 945.608,164.93 956.5,167C 960.824,171.588 962.658,177.088 962,183.5C 966.767,176.599 971.101,176.933 975,184.5C 976.911,190.995 975.078,195.995 969.5,199.5C 971.83,204.463 974.497,209.13 977.5,213.5 Z"/></g>
<g><path style="opacity:1" fill="#5796b1" d="M 301.5,162.5 C 304.481,165.135 305.814,168.468 305.5,172.5C 299.5,176.5 293.5,176.5 287.5,172.5C 287.436,168.301 288.769,164.634 291.5,161.5C 295.098,159.908 298.431,160.242 301.5,162.5 Z"/></g>
<g><path style="opacity:1" fill="#f8d5a2" d="M 642.5,162.5 C 643.837,166.845 645.171,171.178 646.5,175.5C 645.329,176.345 643.995,177.011 642.5,177.5C 638.116,177.826 633.783,177.492 629.5,176.5C 626.128,173.144 624.128,169.144 623.5,164.5C 629.853,163.953 636.186,163.286 642.5,162.5 Z"/></g>
<g><path style="opacity:1" fill="#cfcfce" d="M 682.5,162.5 C 685.584,163.256 687.251,165.256 687.5,168.5C 679.826,172.432 672.159,172.432 664.5,168.5C 664.238,167.022 664.571,165.689 665.5,164.5C 670.975,162.654 676.642,161.987 682.5,162.5 Z"/></g>
<g><path style="opacity:1" fill="#85b9de" d="M 287.5,172.5 C 293.5,176.5 299.5,176.5 305.5,172.5C 305.182,177.032 305.515,181.366 306.5,185.5C 306.5,186.167 306.167,186.5 305.5,186.5C 299.495,190.499 293.495,190.499 287.5,186.5C 287.5,181.833 287.5,177.167 287.5,172.5 Z"/></g>
<g><path style="opacity:1" fill="#575958" d="M 143.5,178.5 C 152.31,177.005 157.81,181.339 160,191.5C 158.696,217.877 171.196,232.544 197.5,235.5C 197.783,239.964 199.116,243.964 201.5,247.5C 188.421,247.866 175.421,247.033 162.5,245C 159.038,243.435 155.705,241.602 152.5,239.5C 151.893,239.624 151.56,239.957 151.5,240.5C 144.858,232.428 141.025,223.094 140,212.5C 139.333,204.5 139.333,196.5 140,188.5C 140.013,184.654 141.18,181.321 143.5,178.5 Z"/></g>
<g><path style="opacity:1" fill="#fafafa" d="M 233.5,180.5 C 237.867,181.517 241.867,183.35 245.5,186C 252.072,191.679 256.739,198.512 259.5,206.5C 259.5,207.5 259.5,208.5 259.5,209.5C 254.844,210.751 250.511,212.751 246.5,215.5C 245.817,215.137 245.15,214.804 244.5,214.5C 242.432,202.629 238.765,191.296 233.5,180.5 Z"/></g>
<g><path style="opacity:1" fill="#91a863" d="M 664.5,168.5 C 672.159,172.432 679.826,172.432 687.5,168.5C 686.965,177.762 685.965,186.928 684.5,196C 681.759,196.977 678.925,197.477 676,197.5C 668.713,198.713 665.213,195.713 665.5,188.5C 657.648,186.378 654.982,181.378 657.5,173.5C 659.588,172.061 661.921,171.394 664.5,171.5C 664.5,170.5 664.5,169.5 664.5,168.5 Z"/></g>
<g><path style="opacity:1" fill="#2f627f" d="M 662.5,175.5 C 663.5,175.5 664.5,175.5 665.5,175.5C 665.82,178.898 665.487,182.232 664.5,185.5C 660.649,182.656 659.983,179.322 662.5,175.5 Z"/></g>
<g><path style="opacity:1" fill="#5393ad" d="M 287.5,186.5 C 293.495,190.499 299.495,190.499 305.5,186.5C 305.815,194.42 305.482,202.253 304.5,210C 298.806,212.113 293.306,211.946 288,209.5C 287.826,204.649 287.326,199.982 286.5,195.5C 287.403,192.609 287.736,189.609 287.5,186.5 Z"/></g>
<g><path style="opacity:1" fill="#b9c0c8" d="M 723.5,195.5 C 720.5,195.5 717.5,195.5 714.5,195.5C 713.463,193.262 713.297,190.929 714,188.5C 717.333,187.167 720.667,187.167 724,188.5C 724.703,190.929 724.537,193.262 723.5,195.5 Z"/></g>
<g><path style="opacity:1" fill="#c3beb7" d="M 384.5,211.5 C 384.22,208.612 385.553,207.112 388.5,207C 386.246,205.85 383.913,205.516 381.5,206C 378.158,209.674 374.492,213.008 370.5,216C 368.866,216.494 367.199,216.66 365.5,216.5C 365.281,215.325 365.614,214.325 366.5,213.5C 369.5,210.833 372.5,208.167 375.5,205.5C 374.833,205.167 374.167,204.833 373.5,204.5C 371.728,205.36 370.395,206.693 369.5,208.5C 368.833,208.167 368.167,207.833 367.5,207.5C 365.091,209.918 362.424,211.918 359.5,213.5C 358.833,213.167 358.167,212.833 357.5,212.5C 361.681,209.333 365.014,205.666 367.5,201.5C 366.127,201.343 364.793,201.51 363.5,202C 358.509,204.255 353.843,207.088 349.5,210.5C 348.068,210.267 347.568,209.6 348,208.5C 351.378,206.397 354.211,203.731 356.5,200.5C 354.926,199.369 353.259,199.202 351.5,200C 341.47,206.486 332.136,213.652 323.5,221.5C 317.805,218.414 311.805,215.581 305.5,213C 316.761,205.121 328.261,197.621 340,190.5C 357.263,195.439 374.43,200.606 391.5,206C 389.136,207.842 386.803,209.675 384.5,211.5 Z"/></g>
<g><path style="opacity:1" fill="#f8d6a3" d="M 273.5,207.5 C 274.167,209.833 274.833,212.167 275.5,214.5C 275.5,217.833 275.5,221.167 275.5,224.5C 272.436,226.231 269.769,228.398 267.5,231C 266.101,231.595 264.768,231.428 263.5,230.5C 261.827,232.086 259.827,232.753 257.5,232.5C 257.46,229.119 257.793,225.786 258.5,222.5C 257.167,222.5 255.833,222.5 254.5,222.5C 254.166,219.509 255.166,217.176 257.5,215.5C 259.074,213.898 259.741,211.898 259.5,209.5C 259.5,208.5 259.5,207.5 259.5,206.5C 260.317,204.522 261.817,203.522 264,203.5C 267.583,203.968 270.75,205.302 273.5,207.5 Z"/></g>
<g><path style="opacity:1" fill="#cecac1" d="M 384.5,211.5 C 381.878,213.782 379.212,216.115 376.5,218.5C 381.411,220.359 386.411,222.026 391.5,223.5C 392.932,223.733 393.432,224.4 393,225.5C 382.948,234.556 372.615,243.223 362,251.5C 343.833,245 325.667,238.5 307.5,232C 312.445,227.884 317.779,224.384 323.5,221.5C 332.136,213.652 341.47,206.486 351.5,200C 353.259,199.202 354.926,199.369 356.5,200.5C 354.211,203.731 351.378,206.397 348,208.5C 347.568,209.6 348.068,210.267 349.5,210.5C 353.843,207.088 358.509,204.255 363.5,202C 364.793,201.51 366.127,201.343 367.5,201.5C 365.014,205.666 361.681,209.333 357.5,212.5C 358.167,212.833 358.833,213.167 359.5,213.5C 362.424,211.918 365.091,209.918 367.5,207.5C 368.167,207.833 368.833,208.167 369.5,208.5C 370.395,206.693 371.728,205.36 373.5,204.5C 374.167,204.833 374.833,205.167 375.5,205.5C 372.5,208.167 369.5,210.833 366.5,213.5C 365.614,214.325 365.281,215.325 365.5,216.5C 367.199,216.66 368.866,216.494 370.5,216C 374.492,213.008 378.158,209.674 381.5,206C 383.913,205.516 386.246,205.85 388.5,207C 385.553,207.112 384.22,208.612 384.5,211.5 Z"/></g>
<g><path style="opacity:1" fill="#85b9de" d="M 710.5,207.5 C 715.802,210.162 721.135,210.162 726.5,207.5C 730.195,222.472 724.862,227.138 710.5,221.5C 710.5,216.833 710.5,212.167 710.5,207.5 Z"/></g>
<g><path style="opacity:1" fill="#d0d3d2" d="M 259.5,209.5 C 259.741,211.898 259.074,213.898 257.5,215.5C 255.49,214.307 253.324,214.307 251,215.5C 242.907,220.13 234.74,224.63 226.5,229C 226.085,231.026 225.085,232.526 223.5,233.5C 224.598,232.603 224.598,231.77 223.5,231C 219.848,230.501 216.182,230.335 212.5,230.5C 223.346,227.758 233.679,223.258 243.5,217C 244.252,216.329 244.586,215.496 244.5,214.5C 245.15,214.804 245.817,215.137 246.5,215.5C 250.511,212.751 254.844,210.751 259.5,209.5 Z"/></g>
<g><path style="opacity:1" fill="#83bbcd" d="M 257.5,215.5 C 255.166,217.176 254.166,219.509 254.5,222.5C 255.833,222.5 257.167,222.5 258.5,222.5C 257.793,225.786 257.46,229.119 257.5,232.5C 259.827,232.753 261.827,232.086 263.5,230.5C 264.768,231.428 266.101,231.595 267.5,231C 269.769,228.398 272.436,226.231 275.5,224.5C 276.468,222.393 276.802,220.059 276.5,217.5C 283.862,219.645 291.362,221.312 299,222.5C 300.726,223.648 300.559,224.815 298.5,226C 284.025,233.135 270.025,241.135 256.5,250C 252.239,251.363 247.905,251.696 243.5,251C 237.668,249.627 232.002,248.127 226.5,246.5C 240.606,238.325 239.606,234.492 223.5,235C 220.903,234.221 220.903,233.721 223.5,233.5C 225.085,232.526 226.085,231.026 226.5,229C 234.74,224.63 242.907,220.13 251,215.5C 253.324,214.307 255.49,214.307 257.5,215.5 Z"/></g>
<g><path style="opacity:1" fill="#5393ae" d="M 714.5,195.5 C 717.5,195.5 720.5,195.5 723.5,195.5C 725.177,198.025 726.677,200.691 728,203.5C 728.667,216.833 728.667,230.167 728,243.5C 725.29,245.792 722.123,246.792 718.5,246.5C 715.747,246.647 713.247,245.98 711,244.5C 710.5,236.841 710.334,229.174 710.5,221.5C 724.862,227.138 730.195,222.472 726.5,207.5C 721.135,210.162 715.802,210.162 710.5,207.5C 710.338,205.473 710.505,203.473 711,201.5C 712.421,199.595 713.588,197.595 714.5,195.5 Z"/></g>
<g><path style="opacity:1" fill="#f8d6a3" d="M 212.5,230.5 C 216.182,230.335 219.848,230.501 223.5,231C 224.598,231.77 224.598,232.603 223.5,233.5C 220.903,233.721 220.903,234.221 223.5,235C 239.606,234.492 240.606,238.325 226.5,246.5C 224.302,246.875 222.302,247.542 220.5,248.5C 217.167,248.5 213.833,248.5 210.5,248.5C 207.873,247.908 205.206,247.575 202.5,247.5C 202.167,247.5 201.833,247.5 201.5,247.5C 199.116,243.964 197.783,239.964 197.5,235.5C 202.023,232.46 207.023,230.793 212.5,230.5 Z"/></g>
<g><path style="opacity:1" fill="#d5d7d7" d="M 275.5,214.5 C 285.722,217.305 296.056,219.639 306.5,221.5C 306.5,222.5 306.5,223.5 306.5,224.5C 288.92,234.629 271.254,244.796 253.5,255C 250.833,255.667 248.167,255.667 245.5,255C 237.058,252.752 228.724,250.586 220.5,248.5C 222.302,247.542 224.302,246.875 226.5,246.5C 232.002,248.127 237.668,249.627 243.5,251C 247.905,251.696 252.239,251.363 256.5,250C 270.025,241.135 284.025,233.135 298.5,226C 300.559,224.815 300.726,223.648 299,222.5C 291.362,221.312 283.862,219.645 276.5,217.5C 276.802,220.059 276.468,222.393 275.5,224.5C 275.5,221.167 275.5,217.833 275.5,214.5 Z"/></g>
<g><path style="opacity:1" fill="#565958" d="M 910.5,231.5 C 907.652,234.53 905.818,238.196 905,242.5C 904.173,250.596 904.673,258.596 906.5,266.5C 900.467,265.965 894.801,267.132 889.5,270C 884.455,276.261 881.788,283.427 881.5,291.5C 878.167,290.167 874.833,290.167 871.5,291.5C 869.302,291.125 867.302,290.458 865.5,289.5C 866.908,281.737 868.408,273.737 870,265.5C 871.333,262.833 872.667,260.167 874,257.5C 877.744,254.262 880.91,250.595 883.5,246.5C 884.552,246.649 885.552,246.483 886.5,246C 893.725,239.887 901.725,235.054 910.5,231.5 Z"/></g>
<g><path style="opacity:1" fill="#3f4140" d="M 922.5,228.5 C 926.528,231.181 930.861,233.347 935.5,235C 945.849,236.432 955.849,235.265 965.5,231.5C 968.661,232.913 971.661,234.58 974.5,236.5C 976.325,251.547 973.825,265.881 967,279.5C 960.17,288.837 951.004,294.504 939.5,296.5C 940.513,280.492 940.513,264.492 939.5,248.5C 939.631,244.846 941.298,242.013 944.5,240C 940.854,238.547 937.188,238.38 933.5,239.5C 934.562,242.103 934.728,244.77 934,247.5C 930.26,259.553 926.426,271.553 922.5,283.5C 917.167,277.833 911.833,272.167 906.5,266.5C 904.673,258.596 904.173,250.596 905,242.5C 905.818,238.196 907.652,234.53 910.5,231.5C 914.168,229.279 918.168,228.279 922.5,228.5 Z"/></g>
<g><path style="opacity:1" fill="#fefefe" d="M 587.5,583.5 C 586.167,583.5 584.833,583.5 583.5,583.5C 583.83,576.468 583.497,569.468 582.5,562.5C 581.264,561.754 579.93,561.421 578.5,561.5C 556.386,556.343 534.052,551.676 511.5,547.5C 512.395,559.807 512.728,572.141 512.5,584.5C 502.106,584.04 491.772,583.04 481.5,581.5C 479.603,575.341 478.603,569.008 478.5,562.5C 483.485,540.801 476.818,523.468 458.5,510.5C 454.494,513.505 450.16,516.005 445.5,518C 432.887,521.871 420.221,525.538 407.5,529C 395.391,532.373 386.391,539.54 380.5,550.5C 358.678,540.09 338.678,526.923 320.5,511C 303.02,495.186 289.854,476.353 281,454.5C 268.344,418.749 271.344,384.416 290,351.5C 308.028,322.804 331.861,300.304 361.5,284C 412.362,256.624 466.695,241.624 524.5,239C 589.852,235.788 652.186,247.788 711.5,275C 742.065,289.9 768.232,310.4 790,336.5C 819.385,375.04 824.719,416.707 806,461.5C 790.098,491.402 767.932,515.569 739.5,534C 692.724,562.199 642.058,578.699 587.5,583.5 Z"/></g>
<g><path style="opacity:1" fill="#3f4140" d="M 201.5,247.5 C 201.833,247.5 202.167,247.5 202.5,247.5C 201.057,250.077 199.39,252.41 197.5,254.5C 192.85,255.26 188.183,255.926 183.5,256.5C 183.5,258.833 183.5,261.167 183.5,263.5C 183.649,264.552 183.483,265.552 183,266.5C 180.246,270.092 177.079,273.092 173.5,275.5C 162.875,265.919 155.541,254.252 151.5,240.5C 151.56,239.957 151.893,239.624 152.5,239.5C 155.705,241.602 159.038,243.435 162.5,245C 175.421,247.033 188.421,247.866 201.5,247.5 Z"/></g>
<g><path style="opacity:1" fill="#575958" d="M 974.5,236.5 C 986.121,246.005 991.788,258.339 991.5,273.5C 989.068,281.195 985.735,288.528 981.5,295.5C 977.864,300.498 973.197,304.332 967.5,307C 960.09,309.937 952.423,312.104 944.5,313.5C 938.421,313.87 932.421,314.537 926.5,315.5C 925.508,315.672 924.842,315.338 924.5,314.5C 925.473,312.932 925.64,311.265 925,309.5C 922.536,306.519 919.703,304.186 916.5,302.5C 921.629,300.359 926.962,299.025 932.5,298.5C 935.067,298.279 937.401,297.612 939.5,296.5C 951.004,294.504 960.17,288.837 967,279.5C 973.825,265.881 976.325,251.547 974.5,236.5 Z"/></g>
<g><path style="opacity:1" fill="#a2a5a8" d="M 306.5,224.5 C 306.439,226.592 305.439,228.092 303.5,229C 287.5,238.333 271.5,247.667 255.5,257C 251.5,257.667 247.5,257.667 243.5,257C 232.258,254.592 221.258,251.759 210.5,248.5C 213.833,248.5 217.167,248.5 220.5,248.5C 228.724,250.586 237.058,252.752 245.5,255C 248.167,255.667 250.833,255.667 253.5,255C 271.254,244.796 288.92,234.629 306.5,224.5 Z"/></g>
<g><path style="opacity:1" fill="#1f5b81" d="M 906.5,266.5 C 911.833,272.167 917.167,277.833 922.5,283.5C 925.833,288.5 929.167,293.5 932.5,298.5C 926.962,299.025 921.629,300.359 916.5,302.5C 911.477,301.191 906.477,301.358 901.5,303C 900.944,303.383 900.611,303.883 900.5,304.5C 897.092,303.099 893.592,301.765 890,300.5C 888.97,300.164 888.47,299.497 888.5,298.5C 889.525,298.103 889.692,297.437 889,296.5C 887.143,293.8 884.643,292.134 881.5,291.5C 881.788,283.427 884.455,276.261 889.5,270C 894.801,267.132 900.467,265.965 906.5,266.5 Z"/></g>
<g><path style="opacity:1" fill="#8d9099" d="M 939.5,296.5 C 937.401,297.612 935.067,298.279 932.5,298.5C 929.167,293.5 925.833,288.5 922.5,283.5C 926.426,271.553 930.26,259.553 934,247.5C 934.728,244.77 934.562,242.103 933.5,239.5C 937.188,238.38 940.854,238.547 944.5,240C 941.298,242.013 939.631,244.846 939.5,248.5C 940.513,264.492 940.513,280.492 939.5,296.5 Z"/></g>
<g><path style="opacity:1" fill="#4a4a4a" d="M 991.5,273.5 C 992.32,275.14 993.153,276.807 994,278.5C 996.283,295.75 992.95,311.75 984,326.5C 981.842,328.494 979.342,329.828 976.5,330.5C 977.225,328.053 977.892,325.553 978.5,323C 978.905,322.055 979.572,321.388 980.5,321C 980.167,320.667 979.833,320.333 979.5,320C 981.445,311.609 982.612,303.109 983,294.5C 982.617,295.056 982.117,295.389 981.5,295.5C 985.735,288.528 989.068,281.195 991.5,273.5 Z"/></g>
<g><path style="opacity:1" fill="#747b7b" d="M 815.5,273.5 C 810.408,273.497 810.408,274.33 815.5,276C 834.143,281.983 852.81,287.983 871.5,294C 881.148,308.137 890.148,322.637 898.5,337.5C 878.533,331.428 858.866,324.595 839.5,317C 836.883,316.178 834.216,315.678 831.5,315.5C 824.257,301.346 817.257,287.013 810.5,272.5C 812.415,272.216 814.081,272.549 815.5,273.5 Z"/></g>
<g><path style="opacity:1" fill="#c3c0ba" d="M 215.5,279.5 C 205.881,281.159 196.214,282.492 186.5,283.5C 185.814,276.653 184.814,269.986 183.5,263.5C 183.5,261.167 183.5,258.833 183.5,256.5C 188.183,255.926 192.85,255.26 197.5,254.5C 201.102,253.966 204.602,253.966 208,254.5C 211.009,262.691 213.509,271.025 215.5,279.5 Z"/></g>
<g><path style="opacity:1" fill="#50565c" d="M 197.5,256.5 C 200.572,256.183 203.572,256.516 206.5,257.5C 209.121,263.985 211.121,270.652 212.5,277.5C 204.479,278.704 196.479,280.038 188.5,281.5C 187.916,273.826 187.249,266.159 186.5,258.5C 190.387,258.354 194.054,257.687 197.5,256.5 Z"/></g>
<g><path style="opacity:1" fill="#68696a" d="M 215.5,279.5 C 215.5,280.5 215.5,281.5 215.5,282.5C 205.806,283.688 196.139,285.021 186.5,286.5C 186.5,285.5 186.5,284.5 186.5,283.5C 196.214,282.492 205.881,281.159 215.5,279.5 Z"/></g>
<g><path style="opacity:1" fill="#3f4140" d="M 976.5,330.5 C 974.244,339.683 969.91,347.683 963.5,354.5C 957.48,340.787 951.147,327.121 944.5,313.5C 952.423,312.104 960.09,309.937 967.5,307C 973.197,304.332 977.864,300.498 981.5,295.5C 982.117,295.389 982.617,295.056 983,294.5C 982.612,303.109 981.445,311.609 979.5,320C 979.833,320.333 980.167,320.667 980.5,321C 979.572,321.388 978.905,322.055 978.5,323C 977.892,325.553 977.225,328.053 976.5,330.5 Z"/></g>
<g><path style="opacity:1" fill="#f5d5a2" d="M 881.5,291.5 C 884.643,292.134 887.143,293.8 889,296.5C 889.692,297.437 889.525,298.103 888.5,298.5C 883.846,298.395 883.346,299.729 887,302.5C 887.556,304.885 887.39,307.218 886.5,309.5C 886.631,310.376 886.298,311.043 885.5,311.5C 881.837,305.509 878.17,299.509 874.5,293.5C 873.398,292.824 872.398,292.158 871.5,291.5C 874.833,290.167 878.167,290.167 881.5,291.5 Z"/></g>
<g><path style="opacity:1" fill="#91939b" d="M 888.5,298.5 C 888.47,299.497 888.97,300.164 890,300.5C 893.592,301.765 897.092,303.099 900.5,304.5C 901.335,305.943 902.668,306.943 904.5,307.5C 902.077,308.729 899.577,309.729 897,310.5C 896.503,312.81 896.337,315.143 896.5,317.5C 906.184,320.588 915.517,319.588 924.5,314.5C 924.842,315.338 925.508,315.672 926.5,315.5C 926.489,317.017 925.823,318.184 924.5,319C 919.339,322.666 914.339,326.499 909.5,330.5C 909.53,329.503 909.03,328.836 908,328.5C 905.612,330.891 902.945,332.891 900,334.5C 896.419,329.672 893.085,324.672 890,319.5C 888.308,316.26 887.141,312.927 886.5,309.5C 887.39,307.218 887.556,304.885 887,302.5C 883.346,299.729 883.846,298.395 888.5,298.5 Z"/></g>
<g><path style="opacity:1" fill="#f8d5a3" d="M 916.5,302.5 C 919.703,304.186 922.536,306.519 925,309.5C 925.64,311.265 925.473,312.932 924.5,314.5C 915.517,319.588 906.184,320.588 896.5,317.5C 896.337,315.143 896.503,312.81 897,310.5C 899.577,309.729 902.077,308.729 904.5,307.5C 902.668,306.943 901.335,305.943 900.5,304.5C 900.611,303.883 900.944,303.383 901.5,303C 906.477,301.358 911.477,301.191 916.5,302.5 Z"/></g>
<g><path style="opacity:1" fill="#9ca0a2" d="M 815.5,273.5 C 832.044,279.138 848.711,284.471 865.5,289.5C 867.302,290.458 869.302,291.125 871.5,291.5C 872.398,292.158 873.398,292.824 874.5,293.5C 878.17,299.509 881.837,305.509 885.5,311.5C 886.298,311.043 886.631,310.376 886.5,309.5C 887.141,312.927 888.308,316.26 890,319.5C 893.085,324.672 896.419,329.672 900,334.5C 902.945,332.891 905.612,330.891 908,328.5C 909.03,328.836 909.53,329.503 909.5,330.5C 906.268,333.61 902.601,335.944 898.5,337.5C 890.148,322.637 881.148,308.137 871.5,294C 852.81,287.983 834.143,281.983 815.5,276C 810.408,274.33 810.408,273.497 815.5,273.5 Z"/></g>
<g><path style="opacity:1" fill="#dbdad9" d="M 913.5,336.5 C 919.024,335.898 924.19,336.898 929,339.5C 929.179,342.553 929.679,345.553 930.5,348.5C 935.701,351.998 936.868,356.665 934,362.5C 932.736,364.607 930.903,365.607 928.5,365.5C 928.74,369.578 926.74,371.744 922.5,372C 917.601,373.125 913.101,372.291 909,369.5C 908.222,359.5 907.889,349.5 908,339.5C 909.876,338.391 911.709,337.391 913.5,336.5 Z"/></g>
<g><path style="opacity:1" fill="#5e849f" d="M 928.5,354.5 C 929.725,355.152 930.392,356.319 930.5,358C 930.546,359.728 930.046,361.228 929,362.5C 928.503,359.854 928.336,357.187 928.5,354.5 Z"/></g>
<g><path style="opacity:1" fill="#5f3e2d" d="M 95.5,409.5 C 94.8444,410.278 94.0111,410.944 93,411.5C 76.8572,405.084 64.8572,409.418 57,424.5C 56.502,427.482 56.3354,430.482 56.5,433.5C 43.9264,432.623 39.4264,438.29 43,450.5C 45.1005,453.467 47.9338,455.3 51.5,456C 49.375,459.082 47.375,462.249 45.5,465.5C 44.2713,466.281 42.938,466.781 41.5,467C 35.1754,467.5 28.8421,467.666 22.5,467.5C 20.0733,467.477 17.74,466.977 15.5,466C 6.92589,454.427 1.59256,441.593 -0.5,427.5C -0.5,421.5 -0.5,415.5 -0.5,409.5C 5.93873,379.622 24.6054,366.455 55.5,370C 62.2185,372.131 69.0519,373.631 76,374.5C 80.4929,374.835 84.6595,373.835 88.5,371.5C 94.9308,383.329 97.2642,395.996 95.5,409.5 Z"/></g>
<g><path style="opacity:1" fill="#c0c6ca" d="M 844.5,412.5 C 841.5,413.833 838.5,413.833 835.5,412.5C 834.532,410.393 834.198,408.059 834.5,405.5C 837.833,405.5 841.167,405.5 844.5,405.5C 844.5,407.833 844.5,410.167 844.5,412.5 Z"/></g>
<g><path style="opacity:1" fill="#f9d5a2" d="M 95.5,409.5 C 100.802,427.314 98.8019,444.314 89.5,460.5C 87.1153,462.884 85.1153,465.55 83.5,468.5C 78.284,470.257 75.4507,473.923 75,479.5C 66.3899,487.713 56.5565,489.547 45.5,485C 42.5,483.333 40.1667,481 38.5,478C 35.035,476.678 31.7017,475.178 28.5,473.5C 26.1939,471.861 24.1939,469.861 22.5,467.5C 28.8421,467.666 35.1754,467.5 41.5,467C 42.938,466.781 44.2713,466.281 45.5,465.5C 47.375,462.249 49.375,459.082 51.5,456C 47.9338,455.3 45.1005,453.467 43,450.5C 39.4264,438.29 43.9264,432.623 56.5,433.5C 56.3354,430.482 56.502,427.482 57,424.5C 64.8572,409.418 76.8572,405.084 93,411.5C 94.0111,410.944 94.8444,410.278 95.5,409.5 Z"/></g>
<g><path style="opacity:1" fill="#dadada" d="M 229.5,412.5 C 235.072,411.99 240.405,412.823 245.5,415C 246.113,417.147 246.779,419.314 247.5,421.5C 256.103,425.734 256.77,431.234 249.5,438C 248.167,438.333 246.833,438.667 245.5,439C 244.88,441.473 244.214,443.973 243.5,446.5C 237.372,449.5 231.538,449.167 226,445.5C 225.167,436.833 224.333,428.166 223.5,419.5C 224.056,415.897 226.056,413.564 229.5,412.5 Z"/></g>
<g><path style="opacity:1" fill="#513e2e" d="M 230.5,417.5 C 235.046,417.268 239.379,418.101 243.5,420C 238.282,421.563 232.949,421.896 227.5,421C 227.167,420.667 226.833,420.333 226.5,420C 227.858,419.066 229.192,418.232 230.5,417.5 Z"/></g>
<g><path style="opacity:1" fill="#85b9de" d="M 848.5,425.5 C 848.5,429.833 848.5,434.167 848.5,438.5C 847.691,439.469 846.691,440.302 845.5,441C 832.241,444.24 827.908,439.406 832.5,426.5C 837.97,427.972 843.303,427.638 848.5,425.5 Z"/></g>
<g><path style="opacity:1" fill="#386889" d="M 245.5,426.5 C 248.261,425.915 249.927,426.915 250.5,429.5C 250.159,432.187 248.826,434.187 246.5,435.5C 245.516,432.572 245.183,429.572 245.5,426.5 Z"/></g>
<g><path style="opacity:1" fill="#8c919b" d="M 185.5,471.5 C 185.631,470.761 185.464,470.094 185,469.5C 181.535,471.963 178.369,474.796 175.5,478C 173.934,478.765 172.601,478.598 171.5,477.5C 178.738,471.768 185.571,465.435 192,458.5C 193.85,455.537 193.85,452.537 192,449.5C 185.346,442.903 178.513,436.403 171.5,430C 167.88,429.159 164.546,429.826 161.5,432C 151.332,440.67 141.332,449.503 131.5,458.5C 129.833,458.5 128.167,458.5 126.5,458.5C 138.27,448.571 149.936,438.405 161.5,428C 164.546,425.826 167.88,425.159 171.5,426C 179.667,433.5 187.833,441 196,448.5C 198.076,451.217 198.743,454.217 198,457.5C 194.942,461.062 191.442,464.062 187.5,466.5C 186.83,468.291 186.163,469.958 185.5,471.5 Z"/></g>
<g><path style="opacity:1" fill="#82bacd" d="M 171.5,477.5 C 170.876,477.083 170.543,476.416 170.5,475.5C 171.167,473.5 171.833,471.5 172.5,469.5C 172.167,468.833 171.833,468.167 171.5,467.5C 163.404,472.617 158.404,479.95 156.5,489.5C 154.692,489.491 153.025,489.991 151.5,491C 149.297,493.372 146.963,495.539 144.5,497.5C 141.041,496.564 138.207,494.564 136,491.5C 130.563,484.915 125.397,478.248 120.5,471.5C 124.347,472.21 128.014,473.376 131.5,475C 133.956,475.946 135.956,475.446 137.5,473.5C 135.703,472.305 134.703,470.638 134.5,468.5C 141.442,469.376 148.109,471.042 154.5,473.5C 154.62,471.801 154.954,470.135 155.5,468.5C 154.063,466.423 153.396,464.09 153.5,461.5C 150.353,461.263 147.353,460.43 144.5,459C 140.179,458.501 135.846,458.334 131.5,458.5C 141.332,449.503 151.332,440.67 161.5,432C 164.546,429.826 167.88,429.159 171.5,430C 178.513,436.403 185.346,442.903 192,449.5C 193.85,452.537 193.85,455.537 192,458.5C 185.571,465.435 178.738,471.768 171.5,477.5 Z"/></g>
<g><path style="opacity:1" fill="#fefefe" d="M -0.5,427.5 C 1.59256,441.593 6.92589,454.427 15.5,466C 17.74,466.977 20.0733,467.477 22.5,467.5C 24.1939,469.861 26.1939,471.861 28.5,473.5C 18.0727,483.95 13.906,496.616 16,511.5C 17.029,517.874 18.1957,524.208 19.5,530.5C 17.2843,531.203 15.451,532.536 14,534.5C 13.3333,537.833 13.3333,541.167 14,544.5C 19.7136,558.765 28.8803,570.265 41.5,579C 52.3291,583.419 63.3291,587.252 74.5,590.5C 74.8333,591.5 75.5,592.167 76.5,592.5C 79.3203,595.081 82.6536,596.914 86.5,598C 91.5107,598.388 96.5107,598.222 101.5,597.5C 103.167,597.5 104.833,597.5 106.5,597.5C 108.439,606.467 109.939,615.467 111,624.5C 107.167,621.333 103.333,618.167 99.5,615C 92.5,614.333 90.8333,617 94.5,623C 96.898,623.374 99.2313,623.374 101.5,623C 104.682,626.349 108.015,629.516 111.5,632.5C 109.084,634.267 106.417,635.767 103.5,637C 95.5718,638.863 88.0718,641.696 81,645.5C 80.3074,651.145 82.6407,653.145 88,651.5C 89.128,649.655 89.628,647.655 89.5,645.5C 99.1912,643.159 108.858,640.992 118.5,639C 124.291,643.122 129.791,647.622 135,652.5C 133.409,658.91 135.909,661.41 142.5,660C 143.591,657.936 143.758,655.769 143,653.5C 136.947,647.95 131.447,641.95 126.5,635.5C 131.896,632.588 137.563,630.255 143.5,628.5C 146.376,631.911 149.543,632.244 153,629.5C 154.489,625.167 152.989,622.833 148.5,622.5C 139.514,624.996 130.514,627.33 121.5,629.5C 119.392,617.851 117.392,606.185 115.5,594.5C 122.948,592.062 129.948,588.562 136.5,584C 139.777,581.234 142.443,578.067 144.5,574.5C 145.29,573.391 145.79,572.058 146,570.5C 149.36,567.638 152.193,564.305 154.5,560.5C 160.08,558.854 165.413,559.187 170.5,561.5C 171.657,566.462 172.657,571.462 173.5,576.5C 172.965,582.521 174.132,588.187 177,593.5C 180.671,596.42 184.837,597.754 189.5,597.5C 190.823,600.457 192.157,603.457 193.5,606.5C 194.242,616.642 199.742,620.975 210,619.5C 220.045,619.266 229.878,617.766 239.5,615C 242.59,613.293 244.59,610.793 245.5,607.5C 292.091,635.788 342.091,655.788 395.5,667.5C 396.108,677.491 398.108,687.157 401.5,696.5C 398.875,702.458 399.042,708.458 402,714.5C 407.729,727.126 416.562,736.959 428.5,744C 434.487,751.838 442.154,757.505 451.5,761C 460.845,772.186 472.845,776.353 487.5,773.5C 489.581,779.418 491.081,785.418 492,791.5C 487.923,788.212 483.756,785.045 479.5,782C 472.559,781.282 470.893,783.949 474.5,790C 477.025,790.896 479.192,790.396 481,788.5C 485.314,791.647 489.148,795.314 492.5,799.5C 483.289,803.605 473.956,807.438 464.5,811C 459.761,816.714 461.095,819.381 468.5,819C 470.045,817.312 471.045,815.312 471.5,813C 480.178,810.165 488.845,807.331 497.5,804.5C 504.083,808.408 510.417,812.741 516.5,817.5C 515.877,820.346 516.544,823.012 518.5,825.5C 345.5,825.5 172.5,825.5 -0.5,825.5C -0.5,692.833 -0.5,560.167 -0.5,427.5 Z"/></g>
<g><path style="opacity:1" fill="#5393ae" d="M 835.5,412.5 C 838.5,413.833 841.5,413.833 844.5,412.5C 845.383,414.91 846.55,417.243 848,419.5C 848.495,421.473 848.662,423.473 848.5,425.5C 843.303,427.638 837.97,427.972 832.5,426.5C 827.908,439.406 832.241,444.24 845.5,441C 846.691,440.302 847.691,439.469 848.5,438.5C 848.666,446.174 848.5,453.841 848,461.5C 842.875,464.995 837.542,465.328 832,462.5C 830.369,448.594 830.036,434.594 831,420.5C 832.356,417.671 833.856,415.004 835.5,412.5 Z"/></g>
<g><path style="opacity:1" fill="#696969" d="M 122.5,459.5 C 121.4,460.605 120.733,461.938 120.5,463.5C 119.523,466.287 119.19,469.287 119.5,472.5C 117.901,472.232 116.568,472.566 115.5,473.5C 108.619,475.607 101.952,478.273 95.5,481.5C 92.6256,476.05 88.6256,471.717 83.5,468.5C 85.1153,465.55 87.1153,462.884 89.5,460.5C 97.3137,459.67 105.147,459.004 113,458.5C 116.352,458.502 119.518,458.835 122.5,459.5 Z"/></g>
<g><path style="opacity:1" fill="#443b36" d="M 965.5,460.5 C 973.565,461.851 981.565,463.851 989.5,466.5C 991.709,475.251 994.209,483.918 997,492.5C 997.209,509.824 994.876,526.824 990,543.5C 989.272,546.187 988.105,548.52 986.5,550.5C 980.941,553.683 974.941,555.017 968.5,554.5C 960.442,553.574 955.775,549.074 954.5,541C 958.612,537.892 962.445,534.392 966,530.5C 971.931,516.332 967.431,510.666 952.5,513.5C 953.049,504.884 949.049,500.051 940.5,499C 930.196,498.429 920.196,496.429 910.5,493C 908.63,490.96 906.63,489.127 904.5,487.5C 901.414,478.362 902.081,469.529 906.5,461C 919.661,461.594 932.828,461.094 946,459.5C 952.517,459.649 959.017,459.982 965.5,460.5 Z"/></g>
<g><path style="opacity:1" fill="#f9d7a3" d="M 126.5,458.5 C 128.167,458.5 129.833,458.5 131.5,458.5C 135.846,458.334 140.179,458.501 144.5,459C 147.353,460.43 150.353,461.263 153.5,461.5C 153.396,464.09 154.063,466.423 155.5,468.5C 154.954,470.135 154.62,471.801 154.5,473.5C 148.109,471.042 141.442,469.376 134.5,468.5C 134.703,470.638 135.703,472.305 137.5,473.5C 135.956,475.446 133.956,475.946 131.5,475C 128.014,473.376 124.347,472.21 120.5,471.5C 120.5,468.833 120.5,466.167 120.5,463.5C 120.733,461.938 121.4,460.605 122.5,459.5C 122.833,459.5 123.167,459.5 123.5,459.5C 124.791,459.737 125.791,459.404 126.5,458.5 Z"/></g>
<g><path style="opacity:1" fill="#555555" d="M 83.5,468.5 C 88.6256,471.717 92.6256,476.05 95.5,481.5C 98.4834,487.28 100.983,493.28 103,499.5C 103.417,500.756 104.25,501.423 105.5,501.5C 105.082,502.222 104.416,502.722 103.5,503C 104.973,503.71 105.64,504.876 105.5,506.5C 103.821,506.108 102.154,505.608 100.5,505C 95.8402,501.34 91.5069,497.34 87.5,493C 69.8482,488.844 60.1816,495.677 58.5,513.5C 59.6944,522.836 63.6944,530.669 70.5,537C 89.1741,542.968 107.841,542.968 126.5,537C 132.162,534.394 137.828,531.894 143.5,529.5C 146.498,536.755 149.498,544.088 152.5,551.5C 153.167,554.642 153.834,557.642 154.5,560.5C 152.193,564.305 149.36,567.638 146,570.5C 145.79,572.058 145.29,573.391 144.5,574.5C 144.265,573.903 143.765,573.57 143,573.5C 123.141,586.212 101.308,591.712 77.5,590C 76.7476,590.671 76.4142,591.504 76.5,592.5C 75.5,592.167 74.8333,591.5 74.5,590.5C 75.2891,590.217 75.9558,589.717 76.5,589C 70.2553,586.479 64.0886,583.979 58,581.5C 58.4488,580.01 59.4488,578.676 61,577.5C 61.6582,573.428 61.3248,569.428 60,565.5C 53.6469,552.617 44.8135,541.784 33.5,533C 29.1453,530.104 24.4787,529.271 19.5,530.5C 18.1957,524.208 17.029,517.874 16,511.5C 13.906,496.616 18.0727,483.95 28.5,473.5C 31.7017,475.178 35.035,476.678 38.5,478C 40.1667,481 42.5,483.333 45.5,485C 56.5565,489.547 66.3899,487.713 75,479.5C 75.4507,473.923 78.284,470.257 83.5,468.5 Z"/></g>
<g><path style="opacity:1" fill="#fbfbfc" d="M 115.5,473.5 C 121.639,479.786 127.306,486.453 132.5,493.5C 123.253,495.36 114.253,498.027 105.5,501.5C 104.25,501.423 103.417,500.756 103,499.5C 100.983,493.28 98.4834,487.28 95.5,481.5C 101.952,478.273 108.619,475.607 115.5,473.5 Z"/></g>
<g><path style="opacity:1" fill="#f7d5a3" d="M 171.5,477.5 C 172.601,478.598 173.934,478.765 175.5,478C 178.369,474.796 181.535,471.963 185,469.5C 185.464,470.094 185.631,470.761 185.5,471.5C 183.989,482.172 178.322,489.838 168.5,494.5C 163.696,494.681 159.696,493.015 156.5,489.5C 158.404,479.95 163.404,472.617 171.5,467.5C 171.833,468.167 172.167,468.833 172.5,469.5C 171.833,471.5 171.167,473.5 170.5,475.5C 170.543,476.416 170.876,477.083 171.5,477.5 Z"/></g>
<g><path style="opacity:1" fill="#90949c" d="M 120.5,463.5 C 120.5,466.167 120.5,468.833 120.5,471.5C 125.397,478.248 130.563,484.915 136,491.5C 138.207,494.564 141.041,496.564 144.5,497.5C 143.341,499.25 141.674,500.25 139.5,500.5C 137.5,497.833 135.167,495.5 132.5,493.5C 127.306,486.453 121.639,479.786 115.5,473.5C 116.568,472.566 117.901,472.232 119.5,472.5C 119.19,469.287 119.523,466.287 120.5,463.5 Z"/></g>
<g><path style="opacity:1" fill="#666666" d="M 156.5,489.5 C 159.696,493.015 163.696,494.681 168.5,494.5C 167.635,497.375 166.302,500.042 164.5,502.5C 160.554,508.448 156.221,514.115 151.5,519.5C 147.886,522.055 145.219,525.388 143.5,529.5C 137.828,531.894 132.162,534.394 126.5,537C 107.841,542.968 89.1741,542.968 70.5,537C 63.6944,530.669 59.6944,522.836 58.5,513.5C 60.1816,495.677 69.8482,488.844 87.5,493C 91.5069,497.34 95.8402,501.34 100.5,505C 102.154,505.608 103.821,506.108 105.5,506.5C 117.879,510.104 129.212,508.104 139.5,500.5C 141.674,500.25 143.341,499.25 144.5,497.5C 146.963,495.539 149.297,493.372 151.5,491C 153.025,489.991 154.692,489.491 156.5,489.5 Z"/></g>
<g><path style="opacity:1" fill="#f9d5a2" d="M 904.5,487.5 C 906.63,489.127 908.63,490.96 910.5,493C 920.196,496.429 930.196,498.429 940.5,499C 949.049,500.051 953.049,504.884 952.5,513.5C 967.431,510.666 971.931,516.332 966,530.5C 962.445,534.392 958.612,537.892 954.5,541C 955.775,549.074 960.442,553.574 968.5,554.5C 968.801,559.048 966.801,562.215 962.5,564C 951.999,568.896 941.666,568.562 931.5,563C 930.833,562 930.167,561 929.5,560C 926.412,558.982 923.412,557.815 920.5,556.5C 919.609,555.89 918.609,555.557 917.5,555.5C 916.5,553.833 915.167,552.5 913.5,551.5C 911.437,548.382 909.604,545.048 908,541.5C 902.182,523.817 901.016,505.817 904.5,487.5 Z"/></g>
<g><path style="opacity:1" fill="#404952" d="M 132.5,493.5 C 135.167,495.5 137.5,497.833 139.5,500.5C 129.212,508.104 117.879,510.104 105.5,506.5C 105.64,504.876 104.973,503.71 103.5,503C 104.416,502.722 105.082,502.222 105.5,501.5C 114.253,498.027 123.253,495.36 132.5,493.5 Z"/></g>
<g><path style="opacity:1" fill="#423129" d="M 478.5,562.5 C 473.093,559.283 467.426,558.783 461.5,561C 453.617,565.877 446.617,571.877 440.5,579C 426.816,577.685 420.982,583.852 423,597.5C 425.618,602.116 429.451,605.283 434.5,607C 430.188,621.998 420.188,629.498 404.5,629.5C 400.367,627.6 396.367,625.433 392.5,623C 388.792,619.09 385.958,614.59 384,609.5C 381.62,601.931 379.62,594.264 378,586.5C 375.321,574.187 376.154,562.187 380.5,550.5C 386.391,539.54 395.391,532.373 407.5,529C 420.221,525.538 432.887,521.871 445.5,518C 450.16,516.005 454.494,513.505 458.5,510.5C 476.818,523.468 483.485,540.801 478.5,562.5 Z"/></g>
<g><path style="opacity:1" fill="#494949" d="M 74.5,590.5 C 63.3291,587.252 52.3291,583.419 41.5,579C 28.8803,570.265 19.7136,558.765 14,544.5C 13.3333,541.167 13.3333,537.833 14,534.5C 15.451,532.536 17.2843,531.203 19.5,530.5C 24.4787,529.271 29.1453,530.104 33.5,533C 44.8135,541.784 53.6469,552.617 60,565.5C 61.3248,569.428 61.6582,573.428 61,577.5C 59.4488,578.676 58.4488,580.01 58,581.5C 64.0886,583.979 70.2553,586.479 76.5,589C 75.9558,589.717 75.2891,590.217 74.5,590.5 Z"/></g>
<g><path style="opacity:1" fill="#8c908e" d="M 865.5,552.5 C 867.127,554.63 868.96,556.63 871,558.5C 871.667,559.833 871.667,561.167 871,562.5C 870.23,563.598 869.397,563.598 868.5,562.5C 863.167,556.833 857.833,551.167 852.5,545.5C 852.027,544.094 851.027,543.427 849.5,543.5C 846.23,538.56 842.23,534.227 837.5,530.5C 828.441,536.356 819.774,542.69 811.5,549.5C 820.189,559.187 828.856,568.853 837.5,578.5C 838.263,582.138 836.93,583.638 833.5,583C 830.266,579.33 826.933,575.83 823.5,572.5C 818.532,566.197 813.198,560.197 807.5,554.5C 804.562,550.655 805.229,547.489 809.5,545C 818.757,538.123 828.257,531.623 838,525.5C 839.171,526.34 840.338,527.173 841.5,528C 849.313,536.313 857.313,544.48 865.5,552.5 Z"/></g>
<g><path style="opacity:1" fill="#e3bc22" d="M 849.5,543.5 C 851.027,543.427 852.027,544.094 852.5,545.5C 851.244,545.461 850.244,545.961 849.5,547C 849.616,548.268 849.949,549.602 850.5,551C 843.06,555.771 835.894,560.938 829,566.5C 828,564.833 827,563.167 826,561.5C 825.333,560.167 824.667,560.167 824,561.5C 823.251,560.365 823.417,559.365 824.5,558.5C 831.246,553.078 838.246,548.078 845.5,543.5C 847.151,545.735 848.484,545.735 849.5,543.5 Z"/></g>
<g><path style="opacity:1" fill="#f9fcfa" d="M 913.5,551.5 C 915.167,552.5 916.5,553.833 917.5,555.5C 914.833,555.5 912.167,555.5 909.5,555.5C 910.5,553.833 911.833,552.5 913.5,551.5 Z"/></g>
<g><path style="opacity:1" fill="#9f9f9e" d="M 885.5,554.5 C 893.49,555.023 901.49,555.356 909.5,555.5C 912.167,555.5 914.833,555.5 917.5,555.5C 918.609,555.557 919.609,555.89 920.5,556.5C 916.481,560.521 912.814,564.854 909.5,569.5C 907.955,570.452 906.288,570.785 904.5,570.5C 901.167,570.167 897.833,569.833 894.5,569.5C 893.737,568.732 892.737,568.232 891.5,568C 887.848,567.501 884.182,567.335 880.5,567.5C 880.167,567.5 879.833,567.5 879.5,567.5C 881.265,566.539 883.265,566.205 885.5,566.5C 885.5,562.5 885.5,558.5 885.5,554.5 Z"/></g>
<g><path style="opacity:1" fill="#b4b4b4" d="M 986.5,550.5 C 990.722,560.375 992.722,570.708 992.5,581.5C 983.986,582.683 977.486,587.016 973,594.5C 966.056,604.498 961.556,615.498 959.5,627.5C 959.1,633.933 962.1,637.433 968.5,638C 948.284,656.791 924.617,663.291 897.5,657.5C 889.294,653.458 882.794,647.458 878,639.5C 877.151,636.479 876.317,633.479 875.5,630.5C 898.868,634.483 918.701,628.15 935,611.5C 942.392,600.241 943.225,588.574 937.5,576.5C 934.462,573.797 931.795,570.797 929.5,567.5C 923.712,564.499 918.212,564.833 913,568.5C 909.189,575.569 905.689,583.235 902.5,591.5C 900.404,594.208 897.737,595.875 894.5,596.5C 895.562,594.766 895.562,593.099 894.5,591.5C 895.496,591.586 896.329,591.252 897,590.5C 899.867,583.927 903.367,577.761 907.5,572C 906.263,571.768 905.263,571.268 904.5,570.5C 906.288,570.785 907.955,570.452 909.5,569.5C 912.814,564.854 916.481,560.521 920.5,556.5C 923.412,557.815 926.412,558.982 929.5,560C 930.167,561 930.833,562 931.5,563C 941.666,568.562 951.999,568.896 962.5,564C 966.801,562.215 968.801,559.048 968.5,554.5C 974.941,555.017 980.941,553.683 986.5,550.5 Z"/></g>
<g><path style="opacity:1" fill="#e3bc23" d="M 865.5,563.5 C 866.527,565.194 867.861,566.527 869.5,567.5C 863.692,572.802 857.692,577.968 851.5,583C 849.575,584.595 847.575,584.762 845.5,583.5C 841.336,578.503 836.836,573.836 832,569.5C 831.251,568.365 831.417,567.365 832.5,566.5C 838.094,561.879 844.094,558.046 850.5,555C 851.071,553.795 851.738,552.628 852.5,551.5C 856.854,555.522 861.187,559.522 865.5,563.5 Z"/></g>
<g><path style="opacity:1" fill="#f9d6a2" d="M 865.5,552.5 C 872.225,552.773 878.892,553.439 885.5,554.5C 885.5,558.5 885.5,562.5 885.5,566.5C 883.265,566.205 881.265,566.539 879.5,567.5C 877.379,567.325 875.379,567.659 873.5,568.5C 872.432,567.566 871.099,567.232 869.5,567.5C 867.861,566.527 866.527,565.194 865.5,563.5C 866.791,563.737 867.791,563.404 868.5,562.5C 869.397,563.598 870.23,563.598 871,562.5C 871.667,561.167 871.667,559.833 871,558.5C 868.96,556.63 867.127,554.63 865.5,552.5 Z"/></g>
<g><path style="opacity:1" fill="#535f6f" d="M 151.5,519.5 C 156.783,527.341 162.283,535.008 168,542.5C 169.011,543.337 170.178,543.67 171.5,543.5C 171.351,544.552 171.517,545.552 172,546.5C 184.811,561.152 198.978,574.152 214.5,585.5C 214.094,588.281 214.094,591.281 214.5,594.5C 214.5,595.167 214.5,595.833 214.5,596.5C 214.694,606.807 209.694,611.307 199.5,610C 197.308,609.074 195.308,607.907 193.5,606.5C 192.157,603.457 190.823,600.457 189.5,597.5C 189.101,593.884 188.101,590.55 186.5,587.5C 184.956,576.411 179.789,567.411 171,560.5C 170.601,560.728 170.435,561.062 170.5,561.5C 165.413,559.187 160.08,558.854 154.5,560.5C 153.834,557.642 153.167,554.642 152.5,551.5C 149.498,544.088 146.498,536.755 143.5,529.5C 145.219,525.388 147.886,522.055 151.5,519.5 Z"/></g>
<g><path style="opacity:1" fill="#ecca23" d="M 849.5,543.5 C 848.484,545.735 847.151,545.735 845.5,543.5C 838.246,548.078 831.246,553.078 824.5,558.5C 823.417,559.365 823.251,560.365 824,561.5C 824.667,560.167 825.333,560.167 826,561.5C 827,563.167 828,564.833 829,566.5C 835.894,560.938 843.06,555.771 850.5,551C 849.949,549.602 849.616,548.268 849.5,547C 850.244,545.961 851.244,545.461 852.5,545.5C 857.833,551.167 863.167,556.833 868.5,562.5C 867.791,563.404 866.791,563.737 865.5,563.5C 861.187,559.522 856.854,555.522 852.5,551.5C 851.738,552.628 851.071,553.795 850.5,555C 844.094,558.046 838.094,561.879 832.5,566.5C 831.417,567.365 831.251,568.365 832,569.5C 836.836,573.836 841.336,578.503 845.5,583.5C 847.575,584.762 849.575,584.595 851.5,583C 857.692,577.968 863.692,572.802 869.5,567.5C 871.099,567.232 872.432,567.566 873.5,568.5C 865.21,575.113 856.877,581.779 848.5,588.5C 846.481,586.81 844.481,585.144 842.5,583.5C 841.811,580.811 840.144,579.144 837.5,578.5C 828.856,568.853 820.189,559.187 811.5,549.5C 819.774,542.69 828.441,536.356 837.5,530.5C 842.23,534.227 846.23,538.56 849.5,543.5 Z"/></g>
<g><path style="opacity:1" fill="#e3bc22" d="M 836.5,534.5 C 838.932,535.75 841.266,537.25 843.5,539C 842.929,540.205 842.262,541.372 841.5,542.5C 837.89,544.901 834.557,547.568 831.5,550.5C 828.633,552.433 825.633,554.099 822.5,555.5C 821.046,553.698 818.713,552.198 815.5,551C 822.981,545.949 829.981,540.449 836.5,534.5 Z"/></g>
<g><path style="opacity:1" fill="#fad6a2" d="M 478.5,562.5 C 478.603,569.008 479.603,575.341 481.5,581.5C 483.504,594.104 482.504,606.438 478.5,618.5C 474.838,623.827 470.504,628.494 465.5,632.5C 464.5,632.833 463.833,633.5 463.5,634.5C 452.13,641.255 439.797,643.755 426.5,642C 425.255,641.209 423.922,640.709 422.5,640.5C 417.051,638.61 412.051,635.943 407.5,632.5C 406.306,631.728 405.306,630.728 404.5,629.5C 420.188,629.498 430.188,621.998 434.5,607C 429.451,605.283 425.618,602.116 423,597.5C 420.982,583.852 426.816,577.685 440.5,579C 446.617,571.877 453.617,565.877 461.5,561C 467.426,558.783 473.093,559.283 478.5,562.5 Z"/></g>
<g><path style="opacity:1" fill="#bebfc1" d="M 875.5,630.5 C 860.913,627.539 848.246,620.873 837.5,610.5C 835.167,607.167 832.833,603.833 830.5,600.5C 833.857,597.145 837.524,594.145 841.5,591.5C 843.447,594.149 846.114,595.816 849.5,596.5C 850.899,597.89 852.566,598.89 854.5,599.5C 866.939,605.98 879.606,606.146 892.5,600C 893.085,598.698 893.751,597.531 894.5,596.5C 897.737,595.875 900.404,594.208 902.5,591.5C 905.689,583.235 909.189,575.569 913,568.5C 918.212,564.833 923.712,564.499 929.5,567.5C 931.795,570.797 934.462,573.797 937.5,576.5C 943.225,588.574 942.392,600.241 935,611.5C 918.701,628.15 898.868,634.483 875.5,630.5 Z"/></g>
<g><path style="opacity:1" fill="#fafbfc" d="M 894.5,569.5 C 897.833,569.833 901.167,570.167 904.5,570.5C 905.263,571.268 906.263,571.768 907.5,572C 903.367,577.761 899.867,583.927 897,590.5C 896.329,591.252 895.496,591.586 894.5,591.5C 887.152,589.51 879.818,588.177 872.5,587.5C 880.124,581.878 887.457,575.878 894.5,569.5 Z"/></g>
<g><path style="opacity:1" fill="#235c82" d="M 880.5,567.5 C 884.182,567.335 887.848,567.501 891.5,568C 892.737,568.232 893.737,568.732 894.5,569.5C 887.457,575.878 880.124,581.878 872.5,587.5C 866.777,591.885 860.777,595.885 854.5,599.5C 852.566,598.89 850.899,597.89 849.5,596.5C 859.544,588.055 869.711,579.722 880,571.5C 880.49,570.207 880.657,568.873 880.5,567.5 Z"/></g>
<g><path style="opacity:1" fill="#404b53" d="M 186.5,587.5 C 179.349,587.007 175.016,583.34 173.5,576.5C 172.657,571.462 171.657,566.462 170.5,561.5C 170.435,561.062 170.601,560.728 171,560.5C 179.789,567.411 184.956,576.411 186.5,587.5 Z"/></g>
<g><path style="opacity:1" fill="#4a4a4a" d="M 144.5,574.5 C 142.443,578.067 139.777,581.234 136.5,584C 129.948,588.562 122.948,592.062 115.5,594.5C 110.675,595.299 106.008,596.299 101.5,597.5C 96.5107,598.222 91.5107,598.388 86.5,598C 82.6536,596.914 79.3203,595.081 76.5,592.5C 76.4142,591.504 76.7476,590.671 77.5,590C 101.308,591.712 123.141,586.212 143,573.5C 143.765,573.57 144.265,573.903 144.5,574.5 Z"/></g>
<g><path style="opacity:1" fill="#888c8c" d="M 879.5,567.5 C 879.833,567.5 880.167,567.5 880.5,567.5C 880.657,568.873 880.49,570.207 880,571.5C 869.711,579.722 859.544,588.055 849.5,596.5C 846.114,595.816 843.447,594.149 841.5,591.5C 842.265,588.904 842.599,586.237 842.5,583.5C 844.481,585.144 846.481,586.81 848.5,588.5C 856.877,581.779 865.21,575.113 873.5,568.5C 875.379,567.659 877.379,567.325 879.5,567.5 Z"/></g>
<g><path style="opacity:1" fill="#205c82" d="M 481.5,581.5 C 491.772,583.04 502.106,584.04 512.5,584.5C 513.816,590.013 513.816,595.68 512.5,601.5C 508.124,604.888 503.791,608.222 499.5,611.5C 493.218,612.97 487.885,615.97 483.5,620.5C 481.694,619.976 480.028,619.309 478.5,618.5C 482.504,606.438 483.504,594.104 481.5,581.5 Z"/></g>
<g><path style="opacity:1" fill="#f5d4a2" d="M 823.5,572.5 C 826.933,575.83 830.266,579.33 833.5,583C 836.93,583.638 838.263,582.138 837.5,578.5C 840.144,579.144 841.811,580.811 842.5,583.5C 842.599,586.237 842.265,588.904 841.5,591.5C 837.524,594.145 833.857,597.145 830.5,600.5C 824.456,592.044 822.122,582.711 823.5,572.5 Z"/></g>
<g><path style="opacity:1" fill="#697d82" d="M 872.5,587.5 C 879.818,588.177 887.152,589.51 894.5,591.5C 895.562,593.099 895.562,594.766 894.5,596.5C 893.751,597.531 893.085,598.698 892.5,600C 879.606,606.146 866.939,605.98 854.5,599.5C 860.777,595.885 866.777,591.885 872.5,587.5 Z"/></g>
<g><path style="opacity:1" fill="#abacac" d="M 173.5,576.5 C 175.016,583.34 179.349,587.007 186.5,587.5C 188.101,590.55 189.101,593.884 189.5,597.5C 184.837,597.754 180.671,596.42 177,593.5C 174.132,588.187 172.965,582.521 173.5,576.5 Z"/></g>
<g><path style="opacity:1" fill="#a8aaaa" d="M 214.5,585.5 C 217.06,587.273 219.393,589.273 221.5,591.5C 219.249,592.695 216.915,593.695 214.5,594.5C 214.094,591.281 214.094,588.281 214.5,585.5 Z"/></g>
<g><path style="opacity:1" fill="#f4f5f5" d="M 221.5,591.5 C 225.192,593.344 228.525,595.677 231.5,598.5C 225.769,598.242 220.102,597.575 214.5,596.5C 214.5,595.833 214.5,595.167 214.5,594.5C 216.915,593.695 219.249,592.695 221.5,591.5 Z"/></g>
<g><path style="opacity:1" fill="#a9abaa" d="M 214.5,596.5 C 220.102,597.575 225.769,598.242 231.5,598.5C 236.515,601.004 241.181,604.004 245.5,607.5C 244.59,610.793 242.59,613.293 239.5,615C 229.878,617.766 220.045,619.266 210,619.5C 199.742,620.975 194.242,616.642 193.5,606.5C 195.308,607.907 197.308,609.074 199.5,610C 209.694,611.307 214.694,606.807 214.5,596.5 Z"/></g>
<g><path style="opacity:1" fill="#fefefe" d="M 999.5,596.5 C 999.5,672.833 999.5,749.167 999.5,825.5C 840.833,825.5 682.167,825.5 523.5,825.5C 525.333,823.504 525.833,821.171 525,818.5C 518.531,813.032 512.364,807.199 506.5,801C 512.217,798.314 518.05,795.814 524,793.5C 530.03,798.337 533.364,797.004 534,789.5C 531.421,787.653 528.588,787.153 525.5,788C 517.573,790.809 509.573,793.309 501.5,795.5C 500.326,787.804 498.993,780.138 497.5,772.5C 507.642,770.926 516.642,766.926 524.5,760.5C 525.246,759.264 525.579,757.93 525.5,756.5C 529.951,753.889 534.284,751.056 538.5,748C 542.056,743.941 546.056,740.441 550.5,737.5C 550.833,738.167 551.167,738.833 551.5,739.5C 550.271,745.103 549.604,750.77 549.5,756.5C 546.149,761.989 545.816,767.656 548.5,773.5C 555.879,776.236 563.212,776.069 570.5,773C 575.167,770.333 579.833,767.667 584.5,765C 587.372,762.463 589.872,759.63 592,756.5C 592.93,753.15 592.097,750.317 589.5,748C 584.778,747.367 580.445,746.2 576.5,744.5C 578.731,730.739 580.398,716.906 581.5,703C 581.938,696.191 578.938,691.858 572.5,690C 568.5,689.333 564.5,689.333 560.5,690C 551.664,695.25 542.998,700.75 534.5,706.5C 533.679,703.554 533.679,700.554 534.5,697.5C 539.241,693.935 543.907,690.102 548.5,686C 555.013,685.828 561.347,685.328 567.5,684.5C 661.012,682.123 749.012,659.123 831.5,615.5C 829.809,618.645 829.309,621.979 830,625.5C 835.323,645.126 840.49,664.793 845.5,684.5C 845.083,685.124 844.416,685.457 843.5,685.5C 837.75,682.892 831.75,682.058 825.5,683C 820.664,686.834 820.33,691.001 824.5,695.5C 836.023,704.798 849.023,707.964 863.5,705C 865.837,700.815 866.837,696.315 866.5,691.5C 873.612,693.943 880.945,695.443 888.5,696C 886.006,698.244 886.006,700.577 888.5,703C 890.167,703.667 891.833,703.667 893.5,703C 894.226,701.603 895.393,700.769 897,700.5C 902.624,701.781 908.124,703.447 913.5,705.5C 908.911,712.344 904.078,719.01 899,725.5C 898.156,729.006 899.49,731.339 903,732.5C 904.892,732.223 906.225,731.223 907,729.5C 907.155,727.144 907.155,724.811 907,722.5C 912.043,717.625 916.876,712.625 921.5,707.5C 930.381,709.809 939.381,711.476 948.5,712.5C 948.329,717.494 950.662,719.328 955.5,718C 957.013,715.084 956.68,712.418 954.5,710C 945.245,707.75 936.079,705.25 927,702.5C 926.333,701.833 926.333,701.167 927,700.5C 929.333,697.5 931.667,694.5 934,691.5C 936.09,690.848 938.257,690.681 940.5,691C 942.68,688.582 943.013,685.916 941.5,683C 939.833,682.333 938.167,682.333 936.5,683C 933.054,686.446 929.554,689.946 926,693.5C 926.286,685.85 926.786,678.184 927.5,670.5C 935.352,669.45 943.019,667.283 950.5,664C 954.104,661.292 956.604,657.792 958,653.5C 962.954,650.215 967.62,646.548 972,642.5C 978.333,634.167 984.667,625.833 991,617.5C 994.446,610.628 997.279,603.628 999.5,596.5 Z"/></g>
<g><path style="opacity:1" fill="#abadac" d="M 115.5,594.5 C 117.392,606.185 119.392,617.851 121.5,629.5C 130.514,627.33 139.514,624.996 148.5,622.5C 152.989,622.833 154.489,625.167 153,629.5C 149.543,632.244 146.376,631.911 143.5,628.5C 137.563,630.255 131.896,632.588 126.5,635.5C 131.447,641.95 136.947,647.95 143,653.5C 143.758,655.769 143.591,657.936 142.5,660C 135.909,661.41 133.409,658.91 135,652.5C 129.791,647.622 124.291,643.122 118.5,639C 108.858,640.992 99.1912,643.159 89.5,645.5C 89.628,647.655 89.128,649.655 88,651.5C 82.6407,653.145 80.3074,651.145 81,645.5C 88.0718,641.696 95.5718,638.863 103.5,637C 106.417,635.767 109.084,634.267 111.5,632.5C 108.015,629.516 104.682,626.349 101.5,623C 99.2313,623.374 96.898,623.374 94.5,623C 90.8333,617 92.5,614.333 99.5,615C 103.333,618.167 107.167,621.333 111,624.5C 109.939,615.467 108.439,606.467 106.5,597.5C 104.833,597.5 103.167,597.5 101.5,597.5C 106.008,596.299 110.675,595.299 115.5,594.5 Z"/></g>
<g><path style="opacity:1" fill="#5f6365" d="M 578.5,561.5 C 579.93,561.421 581.264,561.754 582.5,562.5C 583.497,569.468 583.83,576.468 583.5,583.5C 584.833,583.5 586.167,583.5 587.5,583.5C 586.432,584.434 585.099,584.768 583.5,584.5C 582.989,596.835 582.322,609.169 581.5,621.5C 576.741,626.387 571.741,631.054 566.5,635.5C 566.5,634.833 566.5,634.167 566.5,633.5C 569.74,628.423 573.907,624.09 579,620.5C 579.81,601.507 580.31,582.507 580.5,563.5C 578.897,563.688 577.563,563.188 576.5,562C 577.094,561.536 577.761,561.369 578.5,561.5 Z"/></g>
<g><path style="opacity:1" fill="#757b7b" d="M 578.5,561.5 C 577.761,561.369 577.094,561.536 576.5,562C 577.563,563.188 578.897,563.688 580.5,563.5C 580.31,582.507 579.81,601.507 579,620.5C 573.907,624.09 569.74,628.423 566.5,633.5C 565.197,631.858 563.864,630.191 562.5,628.5C 564.196,628.315 565.529,627.481 566.5,626C 549.987,620.662 533.32,615.829 516.5,611.5C 515.584,611.543 514.917,611.876 514.5,612.5C 509.595,611.555 504.595,611.221 499.5,611.5C 503.791,608.222 508.124,604.888 512.5,601.5C 513.816,595.68 513.816,590.013 512.5,584.5C 512.728,572.141 512.395,559.807 511.5,547.5C 534.052,551.676 556.386,556.343 578.5,561.5 Z"/></g>
<g><path style="opacity:1" fill="#bccfdf" d="M 517.5,555.5 C 536.769,559.817 556.102,563.817 575.5,567.5C 575.333,583.509 574.833,599.509 574,615.5C 555.302,610.323 536.468,605.657 517.5,601.5C 517.5,586.167 517.5,570.833 517.5,555.5 Z"/></g>
<g><path style="opacity:1" fill="#f7d5a2" d="M 499.5,611.5 C 504.595,611.221 509.595,611.555 514.5,612.5C 516.824,613.33 518.824,614.663 520.5,616.5C 520.291,617.086 519.957,617.586 519.5,618C 515.082,618.208 510.749,618.874 506.5,620C 506.043,620.414 505.709,620.914 505.5,621.5C 506.949,622.172 508.282,622.839 509.5,623.5C 509.5,624.5 509.5,625.5 509.5,626.5C 505.881,627.244 502.215,627.577 498.5,627.5C 494.388,626.191 490.388,626.524 486.5,628.5C 484.98,626.11 483.98,623.443 483.5,620.5C 487.885,615.97 493.218,612.97 499.5,611.5 Z"/></g>
<g><path style="opacity:1" fill="#5e6262" d="M 514.5,612.5 C 514.917,611.876 515.584,611.543 516.5,611.5C 533.32,615.829 549.987,620.662 566.5,626C 565.529,627.481 564.196,628.315 562.5,628.5C 558.084,626.226 553.417,624.559 548.5,623.5C 549.006,628.523 549.673,633.523 550.5,638.5C 548.079,638.122 545.746,637.455 543.5,636.5C 533.679,633.108 523.679,629.941 513.5,627C 512.051,625.898 510.718,624.731 509.5,623.5C 508.282,622.839 506.949,622.172 505.5,621.5C 505.709,620.914 506.043,620.414 506.5,620C 510.749,618.874 515.082,618.208 519.5,618C 519.957,617.586 520.291,617.086 520.5,616.5C 518.824,614.663 516.824,613.33 514.5,612.5 Z"/></g>
<g><path style="opacity:1" fill="#687d82" d="M 837.5,610.5 C 848.246,620.873 860.913,627.539 875.5,630.5C 876.317,633.479 877.151,636.479 878,639.5C 882.794,647.458 889.294,653.458 897.5,657.5C 895.194,657.007 892.861,656.674 890.5,656.5C 890.153,661.14 892.153,664.14 896.5,665.5C 895.527,667.948 895.194,670.615 895.5,673.5C 894.503,678.184 891.503,680.184 886.5,679.5C 880.237,679.909 876.57,677.242 875.5,671.5C 874.193,665.469 872.693,659.469 871,653.5C 868.502,651.583 865.835,649.916 863,648.5C 862.962,656.229 863.462,663.896 864.5,671.5C 865.002,676.838 865.169,682.172 865,687.5C 863.158,690.837 860.325,692.17 856.5,691.5C 850.57,692.24 846.903,689.906 845.5,684.5C 840.49,664.793 835.323,645.126 830,625.5C 829.309,621.979 829.809,618.645 831.5,615.5C 833.131,613.357 835.131,611.69 837.5,610.5 Z"/></g>
<g><path style="opacity:1" fill="#b4b4b4" d="M 478.5,618.5 C 480.028,619.309 481.694,619.976 483.5,620.5C 483.98,623.443 484.98,626.11 486.5,628.5C 486.5,628.833 486.5,629.167 486.5,629.5C 482.653,632.593 478.32,634.926 473.5,636.5C 470.833,635.167 468.167,633.833 465.5,632.5C 470.504,628.494 474.838,623.827 478.5,618.5 Z"/></g>
<g><path style="opacity:1" fill="#747a79" d="M 509.5,623.5 C 510.718,624.731 512.051,625.898 513.5,627C 523.679,629.941 533.679,633.108 543.5,636.5C 542.167,638.167 542.167,639.833 543.5,641.5C 540.962,641.493 538.462,641.159 536,640.5C 523.431,636.075 510.931,631.741 498.5,627.5C 502.215,627.577 505.881,627.244 509.5,626.5C 509.5,625.5 509.5,624.5 509.5,623.5 Z"/></g>
<g><path style="opacity:1" fill="#f8d6a2" d="M 562.5,628.5 C 563.864,630.191 565.197,631.858 566.5,633.5C 566.5,634.167 566.5,634.833 566.5,635.5C 567.354,642.665 566.021,649.332 562.5,655.5C 558.743,652.475 554.41,651.141 549.5,651.5C 548.752,649.668 547.752,648.001 546.5,646.5C 545.752,644.668 544.752,643.001 543.5,641.5C 542.167,639.833 542.167,638.167 543.5,636.5C 545.746,637.455 548.079,638.122 550.5,638.5C 549.673,633.523 549.006,628.523 548.5,623.5C 553.417,624.559 558.084,626.226 562.5,628.5 Z"/></g>
<g><path style="opacity:1" fill="#1e5b81" d="M 486.5,629.5 C 506.5,635.167 526.5,640.833 546.5,646.5C 547.752,648.001 548.752,649.668 549.5,651.5C 541.671,664.906 530.004,669.739 514.5,666C 508.577,664.859 502.91,663.025 497.5,660.5C 496.199,659.118 495.366,657.452 495,655.5C 487.937,648.93 480.77,642.596 473.5,636.5C 478.32,634.926 482.653,632.593 486.5,629.5 Z"/></g>
<g><path style="opacity:1" fill="#5c6163" d="M 498.5,627.5 C 510.931,631.741 523.431,636.075 536,640.5C 538.462,641.159 540.962,641.493 543.5,641.5C 544.752,643.001 545.752,644.668 546.5,646.5C 526.5,640.833 506.5,635.167 486.5,629.5C 486.5,629.167 486.5,628.833 486.5,628.5C 490.388,626.524 494.388,626.191 498.5,627.5 Z"/></g>
<g><path style="opacity:1" fill="#282826" d="M 407.5,632.5 C 412.051,635.943 417.051,638.61 422.5,640.5C 425.256,643.389 428.589,645.556 432.5,647C 438.167,647.667 443.833,647.667 449.5,647C 457.358,646.26 462.024,642.094 463.5,634.5C 463.833,633.5 464.5,632.833 465.5,632.5C 468.167,633.833 470.833,635.167 473.5,636.5C 480.77,642.596 487.937,648.93 495,655.5C 495.366,657.452 496.199,659.118 497.5,660.5C 493.188,658.679 488.855,656.846 484.5,655C 473.78,653.359 466.947,657.859 464,668.5C 462.872,683.064 469.372,692.564 483.5,697C 495.214,701.241 507.214,702.408 519.5,700.5C 520.675,700.281 521.675,700.614 522.5,701.5C 527.186,708.881 530.52,716.881 532.5,725.5C 528.387,732.78 522.721,738.614 515.5,743C 491.683,756.881 467.35,758.047 442.5,746.5C 447.123,743.467 448.623,739.134 447,733.5C 439.993,716.944 428.826,704.111 413.5,695C 409.31,694.19 405.31,694.69 401.5,696.5C 398.108,687.157 396.108,677.491 395.5,667.5C 395.086,660.542 395.752,653.708 397.5,647C 399.247,640.985 402.58,636.151 407.5,632.5 Z"/></g>
<g><path style="opacity:1" fill="#d5bc93" d="M 463.5,634.5 C 462.024,642.094 457.358,646.26 449.5,647C 443.833,647.667 438.167,647.667 432.5,647C 428.589,645.556 425.256,643.389 422.5,640.5C 423.922,640.709 425.255,641.209 426.5,642C 439.797,643.755 452.13,641.255 463.5,634.5 Z"/></g>
<g><path style="opacity:1" fill="#a8acae" d="M 607.5,629.5 C 613.446,630.148 619.113,631.815 624.5,634.5C 625.91,636.949 625.576,639.116 623.5,641C 617.5,644.667 611.5,648.333 605.5,652C 598.64,652.914 592.307,651.414 586.5,647.5C 585.24,645.647 585.24,643.814 586.5,642C 593.894,638.311 600.894,634.144 607.5,629.5 Z"/></g>
<g><path style="opacity:1" fill="#353c42" d="M 608.5,631.5 C 613.293,632.765 617.959,634.431 622.5,636.5C 616.122,640.714 609.622,644.714 603,648.5C 598.58,646.471 594.08,644.638 589.5,643C 595.897,639.141 602.23,635.308 608.5,631.5 Z"/></g>
<g><path style="opacity:1" fill="#f9fafa" d="M 875.5,671.5 C 875.53,672.497 875.03,673.164 874,673.5C 870.974,672.128 867.807,671.462 864.5,671.5C 863.462,663.896 862.962,656.229 863,648.5C 865.835,649.916 868.502,651.583 871,653.5C 872.693,659.469 874.193,665.469 875.5,671.5 Z"/></g>
<g><path style="opacity:1" fill="#4a4a4a" d="M 992.5,581.5 C 995.432,582.8 997.766,584.8 999.5,587.5C 999.5,590.5 999.5,593.5 999.5,596.5C 997.279,603.628 994.446,610.628 991,617.5C 984.667,625.833 978.333,634.167 972,642.5C 967.62,646.548 962.954,650.215 958,653.5C 956.604,657.792 954.104,661.292 950.5,664C 943.019,667.283 935.352,669.45 927.5,670.5C 924.5,670.5 921.5,670.5 918.5,670.5C 910.782,670.403 903.448,668.736 896.5,665.5C 892.153,664.14 890.153,661.14 890.5,656.5C 892.861,656.674 895.194,657.007 897.5,657.5C 924.617,663.291 948.284,656.791 968.5,638C 962.1,637.433 959.1,633.933 959.5,627.5C 961.556,615.498 966.056,604.498 973,594.5C 977.486,587.016 983.986,582.683 992.5,581.5 Z"/></g>
<g><path style="opacity:1" fill="#c7c8ca" d="M 549.5,651.5 C 554.41,651.141 558.743,652.475 562.5,655.5C 563.569,658.408 563.736,661.408 563,664.5C 560.047,671.784 555.881,678.284 550.5,684C 556.157,684.499 561.824,684.666 567.5,684.5C 561.347,685.328 555.013,685.828 548.5,686C 543.907,690.102 539.241,693.935 534.5,697.5C 534.265,696.903 533.765,696.57 533,696.5C 528.567,698.519 524.067,699.852 519.5,700.5C 507.214,702.408 495.214,701.241 483.5,697C 469.372,692.564 462.872,683.064 464,668.5C 466.947,657.859 473.78,653.359 484.5,655C 488.855,656.846 493.188,658.679 497.5,660.5C 502.91,663.025 508.577,664.859 514.5,666C 530.004,669.739 541.671,664.906 549.5,651.5 Z"/></g>
<g><path style="opacity:1" fill="#fcfcfc" d="M 896.5,665.5 C 903.448,668.736 910.782,670.403 918.5,670.5C 918.362,680.175 918.029,689.842 917.5,699.5C 909.418,698.264 901.418,696.597 893.5,694.5C 894.806,693.088 895.64,691.421 896,689.5C 896.817,683.984 896.651,678.65 895.5,673.5C 895.194,670.615 895.527,667.948 896.5,665.5 Z"/></g>
<g><path style="opacity:1" fill="#abadac" d="M 918.5,670.5 C 921.5,670.5 924.5,670.5 927.5,670.5C 926.786,678.184 926.286,685.85 926,693.5C 929.554,689.946 933.054,686.446 936.5,683C 938.167,682.333 939.833,682.333 941.5,683C 943.013,685.916 942.68,688.582 940.5,691C 938.257,690.681 936.09,690.848 934,691.5C 931.667,694.5 929.333,697.5 927,700.5C 926.333,701.167 926.333,701.833 927,702.5C 936.079,705.25 945.245,707.75 954.5,710C 956.68,712.418 957.013,715.084 955.5,718C 950.662,719.328 948.329,717.494 948.5,712.5C 939.381,711.476 930.381,709.809 921.5,707.5C 916.876,712.625 912.043,717.625 907,722.5C 907.155,724.811 907.155,727.144 907,729.5C 906.225,731.223 904.892,732.223 903,732.5C 899.49,731.339 898.156,729.006 899,725.5C 904.078,719.01 908.911,712.344 913.5,705.5C 908.124,703.447 902.624,701.781 897,700.5C 895.393,700.769 894.226,701.603 893.5,703C 891.833,703.667 890.167,703.667 888.5,703C 886.006,700.577 886.006,698.244 888.5,696C 880.945,695.443 873.612,693.943 866.5,691.5C 866.837,696.315 865.837,700.815 863.5,705C 849.023,707.964 836.023,704.798 824.5,695.5C 820.33,691.001 820.664,686.834 825.5,683C 831.75,682.058 837.75,682.892 843.5,685.5C 844.416,685.457 845.083,685.124 845.5,684.5C 846.903,689.906 850.57,692.24 856.5,691.5C 860.325,692.17 863.158,690.837 865,687.5C 865.169,682.172 865.002,676.838 864.5,671.5C 867.807,671.462 870.974,672.128 874,673.5C 875.03,673.164 875.53,672.497 875.5,671.5C 876.57,677.242 880.237,679.909 886.5,679.5C 891.503,680.184 894.503,678.184 895.5,673.5C 896.651,678.65 896.817,683.984 896,689.5C 895.64,691.421 894.806,693.088 893.5,694.5C 901.418,696.597 909.418,698.264 917.5,699.5C 918.029,689.842 918.362,680.175 918.5,670.5 Z"/></g>
<g><path style="opacity:1" fill="#687d81" d="M 576.5,744.5 C 577.319,751.869 574.319,757.036 567.5,760C 561.734,762.156 556.068,761.989 550.5,759.5C 549.614,758.675 549.281,757.675 549.5,756.5C 549.604,750.77 550.271,745.103 551.5,739.5C 551.167,738.833 550.833,738.167 550.5,737.5C 546.056,740.441 542.056,743.941 538.5,748C 534.284,751.056 529.951,753.889 525.5,756.5C 494.52,773.859 465.854,770.859 439.5,747.5C 440.325,746.614 441.325,746.281 442.5,746.5C 467.35,758.047 491.683,756.881 515.5,743C 522.721,738.614 528.387,732.78 532.5,725.5C 530.52,716.881 527.186,708.881 522.5,701.5C 521.675,700.614 520.675,700.281 519.5,700.5C 524.067,699.852 528.567,698.519 533,696.5C 533.765,696.57 534.265,696.903 534.5,697.5C 533.679,700.554 533.679,703.554 534.5,706.5C 542.998,700.75 551.664,695.25 560.5,690C 564.5,689.333 568.5,689.333 572.5,690C 578.938,691.858 581.938,696.191 581.5,703C 580.398,716.906 578.731,730.739 576.5,744.5 Z"/></g>
<g><path style="opacity:1" fill="#494949" d="M 442.5,746.5 C 441.325,746.281 440.325,746.614 439.5,747.5C 465.854,770.859 494.52,773.859 525.5,756.5C 525.579,757.93 525.246,759.264 524.5,760.5C 516.642,766.926 507.642,770.926 497.5,772.5C 494.193,773.051 490.86,773.384 487.5,773.5C 472.845,776.353 460.845,772.186 451.5,761C 442.154,757.505 434.487,751.838 428.5,744C 416.562,736.959 407.729,727.126 402,714.5C 399.042,708.458 398.875,702.458 401.5,696.5C 405.31,694.69 409.31,694.19 413.5,695C 428.826,704.111 439.993,716.944 447,733.5C 448.623,739.134 447.123,743.467 442.5,746.5 Z"/></g>
<g><path style="opacity:1" fill="#a9abaa" d="M 576.5,744.5 C 580.445,746.2 584.778,747.367 589.5,748C 592.097,750.317 592.93,753.15 592,756.5C 589.872,759.63 587.372,762.463 584.5,765C 579.833,767.667 575.167,770.333 570.5,773C 563.212,776.069 555.879,776.236 548.5,773.5C 545.816,767.656 546.149,761.989 549.5,756.5C 549.281,757.675 549.614,758.675 550.5,759.5C 556.068,761.989 561.734,762.156 567.5,760C 574.319,757.036 577.319,751.869 576.5,744.5 Z"/></g>
<g><path style="opacity:1" fill="#abadac" d="M 497.5,772.5 C 498.993,780.138 500.326,787.804 501.5,795.5C 509.573,793.309 517.573,790.809 525.5,788C 528.588,787.153 531.421,787.653 534,789.5C 533.364,797.004 530.03,798.337 524,793.5C 518.05,795.814 512.217,798.314 506.5,801C 512.364,807.199 518.531,813.032 525,818.5C 525.833,821.171 525.333,823.504 523.5,825.5C 521.833,825.5 520.167,825.5 518.5,825.5C 516.544,823.012 515.877,820.346 516.5,817.5C 510.417,812.741 504.083,808.408 497.5,804.5C 488.845,807.331 480.178,810.165 471.5,813C 471.045,815.312 470.045,817.312 468.5,819C 461.095,819.381 459.761,816.714 464.5,811C 473.956,807.438 483.289,803.605 492.5,799.5C 489.148,795.314 485.314,791.647 481,788.5C 479.192,790.396 477.025,790.896 474.5,790C 470.893,783.949 472.559,781.282 479.5,782C 483.756,785.045 487.923,788.212 492,791.5C 491.081,785.418 489.581,779.418 487.5,773.5C 490.86,773.384 494.193,773.051 497.5,772.5 Z"/></g>
<g><path style="opacity:1" fill="#010101" d="M -0.5,825.5 C 172.5,825.5 345.5,825.5 518.5,825.5C 520.167,825.5 521.833,825.5 523.5,825.5C 682.167,825.5 840.833,825.5 999.5,825.5C 999.5,852.167 999.5,878.833 999.5,905.5C 666.167,905.5 332.833,905.5 -0.5,905.5C -0.5,878.833 -0.5,852.167 -0.5,825.5 Z"/></g>
<g><path style="opacity:1" fill="#ececec" d="M 26.5,851.5 C 27.9778,851.238 29.3112,851.571 30.5,852.5C 32.715,859.316 35.215,865.983 38,872.5C 40.4763,865.573 42.643,858.573 44.5,851.5C 46.1992,851.34 47.8659,851.506 49.5,852C 46.0013,860.33 43.0013,868.83 40.5,877.5C 38.5328,877.739 36.6995,877.406 35,876.5C 31.859,868.243 29.0257,859.91 26.5,851.5 Z"/></g>
<g><path style="opacity:1" fill="#eaeaea" d="M 205.5,851.5 C 205.173,856.544 205.506,861.544 206.5,866.5C 207.107,866.376 207.44,866.043 207.5,865.5C 209.896,860.894 213.563,858.727 218.5,859C 215.781,861.382 213.447,864.049 211.5,867C 213.429,870.599 215.763,873.933 218.5,877C 216.741,877.798 215.074,877.631 213.5,876.5C 208.713,867.2 206.38,867.534 206.5,877.5C 205.167,877.5 203.833,877.5 202.5,877.5C 202.5,868.833 202.5,860.167 202.5,851.5C 203.5,851.5 204.5,851.5 205.5,851.5 Z"/></g>
<g><path style="opacity:1" fill="#e7e7e7" d="M 135.5,851.5 C 142.467,850.167 146.801,852.833 148.5,859.5C 145.755,859.627 143.755,858.46 142.5,856C 139.901,855.231 137.401,855.398 135,856.5C 134.333,857.833 134.333,859.167 135,860.5C 138.778,861.95 142.611,863.45 146.5,865C 149.366,868.943 149.032,872.61 145.5,876C 138.146,879.442 132.813,877.609 129.5,870.5C 130.167,870.167 130.833,869.833 131.5,869.5C 134.633,873.24 138.633,874.407 143.5,873C 144.935,870.733 144.602,868.733 142.5,867C 138.169,866.669 134.336,865.169 131,862.5C 129.393,857.438 130.893,853.772 135.5,851.5 Z"/></g>
<g><path style="opacity:1" fill="#707070" d="M 91.5,854.5 C 90.5,854.5 89.5,854.5 88.5,854.5C 88.7678,856.099 88.4345,857.432 87.5,858.5C 87.5,856.833 87.5,855.167 87.5,853.5C 89.099,853.232 90.4324,853.566 91.5,854.5 Z"/></g>
<g><path style="opacity:1" fill="#ebebeb" d="M 91.5,854.5 C 91.5,855.833 91.5,857.167 91.5,858.5C 92.8333,858.5 94.1667,858.5 95.5,858.5C 95.5,859.5 95.5,860.5 95.5,861.5C 94.1667,861.5 92.8333,861.5 91.5,861.5C 91.5,865.833 91.5,870.167 91.5,874.5C 92.8333,874.5 94.1667,874.5 95.5,874.5C 95.5,875.5 95.5,876.5 95.5,877.5C 92.6354,877.945 90.1354,877.278 88,875.5C 87.5008,870.845 87.3342,866.179 87.5,861.5C 86.5,861.5 85.5,861.5 84.5,861.5C 84.5,860.5 84.5,859.5 84.5,858.5C 85.5,858.5 86.5,858.5 87.5,858.5C 88.4345,857.432 88.7678,856.099 88.5,854.5C 89.5,854.5 90.5,854.5 91.5,854.5 Z"/></g>
<g><path style="opacity:1" fill="#ebebeb" d="M 156.5,854.5 C 156.5,855.833 156.5,857.167 156.5,858.5C 157.833,858.5 159.167,858.5 160.5,858.5C 160.5,859.5 160.5,860.5 160.5,861.5C 159.167,861.5 157.833,861.5 156.5,861.5C 156.5,865.833 156.5,870.167 156.5,874.5C 157.833,874.5 159.167,874.5 160.5,874.5C 160.5,875.5 160.5,876.5 160.5,877.5C 158.208,877.756 156.041,877.423 154,876.5C 152.612,871.628 152.112,866.628 152.5,861.5C 151.5,861.5 150.5,861.5 149.5,861.5C 149.5,860.5 149.5,859.5 149.5,858.5C 150.5,858.5 151.5,858.5 152.5,858.5C 153.434,857.432 153.768,856.099 153.5,854.5C 154.5,854.5 155.5,854.5 156.5,854.5 Z"/></g>
<g><path style="opacity:1" fill="#747474" d="M 156.5,854.5 C 155.5,854.5 154.5,854.5 153.5,854.5C 153.768,856.099 153.434,857.432 152.5,858.5C 152.5,856.833 152.5,855.167 152.5,853.5C 154.099,853.232 155.432,853.566 156.5,854.5 Z"/></g>
<g><path style="opacity:1" fill="#919191" d="M 205.5,851.5 C 206.167,856.167 206.833,860.833 207.5,865.5C 207.44,866.043 207.107,866.376 206.5,866.5C 205.506,861.544 205.173,856.544 205.5,851.5 Z"/></g>
<g><path style="opacity:1" fill="#ededed" d="M 52.5,858.5 C 60.5622,857.242 64.5622,860.575 64.5,868.5C 60.1667,868.5 55.8333,868.5 51.5,868.5C 51.3291,870.993 52.3291,872.826 54.5,874C 57.8333,873.333 61.1667,872.667 64.5,872C 59.8995,878.61 54.7328,879.11 49,873.5C 46.3434,867.586 47.5101,862.586 52.5,858.5 Z"/></g>
<g><path style="opacity:1" fill="#e8e8e8" d="M 118.5,858.5 C 120.451,858.227 121.951,858.893 123,860.5C 124.444,858.845 126.278,858.178 128.5,858.5C 128.5,859.833 128.5,861.167 128.5,862.5C 126.278,862.178 124.444,862.845 123,864.5C 122.501,868.821 122.334,873.154 122.5,877.5C 121.167,877.5 119.833,877.5 118.5,877.5C 118.5,871.167 118.5,864.833 118.5,858.5 Z"/></g>
<g><path style="opacity:1" fill="#ececec" d="M 71.5,858.5 C 77.7938,857.302 81.7938,859.636 83.5,865.5C 80.852,864.316 78.1853,862.982 75.5,861.5C 70.8178,863.234 69.3178,866.567 71,871.5C 72.1171,873.124 73.6171,874.124 75.5,874.5C 78.1853,873.018 80.852,871.684 83.5,870.5C 81.7915,876.526 77.7915,878.693 71.5,877C 64.8805,870.835 64.8805,864.669 71.5,858.5 Z"/></g>
<g><path style="opacity:1" fill="#ebebeb" d="M 102.5,858.5 C 112.376,857.541 116.543,861.874 115,871.5C 110.392,878.54 105.059,879.207 99,873.5C 96.3214,867.558 97.4881,862.558 102.5,858.5 Z"/></g>
<g><path style="opacity:1" fill="#ebebeb" d="M 168.5,858.5 C 179.642,858.973 182.975,864.306 178.5,874.5C 172.124,879.283 166.958,878.283 163,871.5C 161.571,865.7 163.404,861.367 168.5,858.5 Z"/></g>
<g><path style="opacity:1" fill="#ebebeb" d="M 187.5,858.5 C 193.794,857.302 197.794,859.636 199.5,865.5C 196.626,864.637 193.959,863.303 191.5,861.5C 186.818,863.234 185.318,866.567 187,871.5C 188.117,873.124 189.617,874.124 191.5,874.5C 194.185,873.018 196.852,871.684 199.5,870.5C 197.792,876.526 193.792,878.693 187.5,877C 180.88,870.835 180.88,864.669 187.5,858.5 Z"/></g>
<g><path style="opacity:1" fill="#e7e7e7" d="M 959.5,859.5 C 962.898,859.18 966.232,859.513 969.5,860.5C 966.914,861.48 964.247,861.813 961.5,861.5C 961.343,862.873 961.51,864.207 962,865.5C 968.031,863.86 970.697,866.193 970,872.5C 968.179,875.991 965.346,877.157 961.5,876C 959.224,874.97 958.557,873.47 959.5,871.5C 965.476,876.39 967.976,875.056 967,867.5C 966.275,866.941 965.442,866.608 964.5,866.5C 962.675,867.651 960.675,868.318 958.5,868.5C 958.508,865.455 958.841,862.455 959.5,859.5 Z"/></g>
<g><path style="opacity:1" fill="#d9d9d9" d="M 729.5,860.5 C 730.5,860.5 731.5,860.5 732.5,860.5C 732.5,861.5 732.5,862.5 732.5,863.5C 736.5,864.167 736.5,864.833 732.5,865.5C 732.5,868.5 732.5,871.5 732.5,874.5C 735.988,874.899 736.154,875.566 733,876.5C 731.893,876.415 730.893,876.081 730,875.5C 729.985,871.585 729.152,867.918 727.5,864.5C 728.853,863.476 729.52,862.143 729.5,860.5 Z"/></g>
<g><path style="opacity:1" fill="#d9d9d9" d="M 772.5,860.5 C 773.5,860.5 774.5,860.5 775.5,860.5C 775.5,861.5 775.5,862.5 775.5,863.5C 779.5,864.167 779.5,864.833 775.5,865.5C 775.5,868.5 775.5,871.5 775.5,874.5C 778.988,874.899 779.154,875.566 776,876.5C 774.893,876.415 773.893,876.081 773,875.5C 772.985,871.585 772.152,867.918 770.5,864.5C 771.853,863.476 772.52,862.143 772.5,860.5 Z"/></g>
<g><path style="opacity:1" fill="#e6e6e6" d="M 932.5,859.5 C 936.355,858.845 939.188,860.179 941,863.5C 941.667,866.5 941.667,869.5 941,872.5C 937.173,877.765 933.34,877.765 929.5,872.5C 930,872.167 930.5,871.833 931,871.5C 934.505,875.676 937.338,875.176 939.5,870C 939.333,869.5 939.167,869 939,868.5C 936.205,871.113 933.371,871.113 930.5,868.5C 928.875,864.954 929.542,861.954 932.5,859.5 Z"/></g>
<g><path style="opacity:1" fill="#dedede" d="M 946.5,859.5 C 954.587,859.432 957.754,863.432 956,871.5C 953.512,876.798 949.845,877.798 945,874.5C 942.632,869.122 943.132,864.122 946.5,859.5 Z"/></g>
<g><path style="opacity:1" fill="#090909" d="M 53.5,861.5 C 55.5914,861.318 57.5914,861.652 59.5,862.5C 60.3857,863.325 60.719,864.325 60.5,865.5C 57.4281,865.817 54.4281,865.484 51.5,864.5C 52.1925,863.482 52.8592,862.482 53.5,861.5 Z"/></g>
<g><path style="opacity:1" fill="#e7e7e7" d="M 910.5,859.5 C 919.123,859.713 921.956,864.047 919,872.5C 915.173,877.765 911.34,877.765 907.5,872.5C 908,872.167 908.5,871.833 909,871.5C 912.505,875.676 915.338,875.176 917.5,870C 917.333,869.5 917.167,869 917,868.5C 914.205,871.113 911.371,871.113 908.5,868.5C 906.875,864.954 907.542,861.954 910.5,859.5 Z"/></g>
<g><path style="opacity:1" fill="#0b0b0b" d="M 104.5,861.5 C 110.867,861.872 113.034,865.206 111,871.5C 108.048,875.482 105.048,875.482 102,871.5C 100.861,867.579 101.695,864.246 104.5,861.5 Z"/></g>
<g><path style="opacity:1" fill="#0b0b0b" d="M 169.5,861.5 C 175.867,861.872 178.034,865.206 176,871.5C 173.048,875.482 170.048,875.482 167,871.5C 165.861,867.579 166.695,864.246 169.5,861.5 Z"/></g>
<g><path style="opacity:1" fill="#171717" d="M 911.5,861.5 C 916.328,861.385 917.661,863.552 915.5,868C 909.738,868.418 908.404,866.251 911.5,861.5 Z"/></g>
<g><path style="opacity:1" fill="#181818" d="M 933.5,861.5 C 938.328,861.385 939.661,863.552 937.5,868C 931.738,868.418 930.404,866.251 933.5,861.5 Z"/></g>
<g><path style="opacity:1" fill="#0d0d0d" d="M 948.5,861.5 C 950.39,861.297 951.89,861.963 953,863.5C 953.667,866.5 953.667,869.5 953,872.5C 951,875.167 949,875.167 947,872.5C 946.013,868.525 946.513,864.859 948.5,861.5 Z"/></g>
<g><path style="opacity:1" fill="#dbdbdb" d="M 749.5,863.5 C 751.833,864.833 754.167,864.833 756.5,863.5C 756.5,864.5 756.5,865.5 756.5,866.5C 755.178,866.33 754.011,866.663 753,867.5C 752.502,870.482 752.335,873.482 752.5,876.5C 751.5,876.5 750.5,876.5 749.5,876.5C 749.5,872.167 749.5,867.833 749.5,863.5 Z"/></g>
<g><path style="opacity:1" fill="#eaeaea" d="M 705.5,863.5 C 711.008,862.678 713.675,865.011 713.5,870.5C 710.428,870.183 707.428,870.516 704.5,871.5C 705.212,873.046 706.378,874.046 708,874.5C 709.582,872.971 711.415,872.471 713.5,873C 710.203,877.393 706.703,877.559 703,873.5C 701.861,869.579 702.695,866.246 705.5,863.5 Z"/></g>
<g><path style="opacity:1" fill="#dfdfdf" d="M 782.5,863.5 C 790.845,863.691 793.178,867.524 789.5,875C 781.735,877.575 778.568,874.742 780,866.5C 781.045,865.627 781.878,864.627 782.5,863.5 Z"/></g>
<g><path style="opacity:1" fill="#e0e0e0" d="M 839.5,863.5 C 847.845,863.691 850.178,867.524 846.5,875C 838.735,877.575 835.568,874.742 837,866.5C 838.045,865.627 838.878,864.627 839.5,863.5 Z"/></g>
<g><path style="opacity:1" fill="#ededed" d="M 849.5,863.5 C 854.046,863.773 858.713,863.773 863.5,863.5C 865.029,863.529 866.196,864.196 867,865.5C 867.825,869.211 867.659,872.878 866.5,876.5C 863.833,861.833 861.167,861.833 858.5,876.5C 857.676,873.215 857.176,869.882 857,866.5C 855.667,865.167 854.333,865.167 853,866.5C 852.502,869.817 852.335,873.15 852.5,876.5C 851.5,876.5 850.5,876.5 849.5,876.5C 849.5,872.167 849.5,867.833 849.5,863.5 Z"/></g>
<g><path style="opacity:1" fill="#e2e2e2" d="M 687.5,859.5 C 688.496,859.414 689.329,859.748 690,860.5C 691.132,864.76 692.799,868.76 695,872.5C 696.333,868.5 697.667,864.5 699,860.5C 700.049,859.483 701.216,859.316 702.5,860C 700.002,865.327 698.002,870.827 696.5,876.5C 695.167,876.5 693.833,876.5 692.5,876.5C 690.635,870.903 688.968,865.237 687.5,859.5 Z"/></g>
<g><path style="opacity:1" fill="#111111" d="M 706.5,865.5 C 708.681,865.284 710.347,866.117 711.5,868C 709.167,868.667 706.833,868.667 704.5,868C 705.381,867.292 706.047,866.458 706.5,865.5 Z"/></g>
<g><path style="opacity:1" fill="#e2e2e2" d="M 875.5,858.5 C 876.497,858.47 877.164,858.97 877.5,860C 875.49,867.214 872.824,874.047 869.5,880.5C 869.167,880.167 868.833,879.833 868.5,879.5C 871.039,872.55 873.372,865.55 875.5,858.5 Z"/></g>
<g><path style="opacity:1" fill="#9a9a9a" d="M 923.5,863.5 C 923.56,862.957 923.893,862.624 924.5,862.5C 925.493,867.12 925.827,871.786 925.5,876.5C 924.833,872.167 924.167,867.833 923.5,863.5 Z"/></g>
<g><path style="opacity:1" fill="#eaeaea" d="M 925.5,876.5 C 925.827,871.786 925.493,867.12 924.5,862.5C 923.893,862.624 923.56,862.957 923.5,863.5C 921.626,865.095 920.793,864.761 921,862.5C 922.734,860.549 924.901,859.549 927.5,859.5C 928.117,865.598 927.45,871.265 925.5,876.5 Z"/></g>
<g><path style="opacity:1" fill="#e7e7e7" d="M 718.5,863.5 C 722.271,862.774 724.937,864.107 726.5,867.5C 726.167,867.833 725.833,868.167 725.5,868.5C 719.928,863.896 717.428,865.23 718,872.5C 719.133,874.211 720.633,874.711 722.5,874C 723.543,872.024 724.877,871.524 726.5,872.5C 723.457,877.34 719.957,877.674 716,873.5C 714.861,869.579 715.695,866.246 718.5,863.5 Z"/></g>
<g><path style="opacity:1" fill="#111111" d="M 783.5,865.5 C 787.976,865.822 789.476,868.156 788,872.5C 784.256,875.52 782.089,874.52 781.5,869.5C 781.752,867.927 782.418,866.594 783.5,865.5 Z"/></g>
<g><path style="opacity:1" fill="#ebebeb" d="M 826.5,863.5 C 830.271,862.774 832.937,864.107 834.5,867.5C 834.167,867.833 833.833,868.167 833.5,868.5C 827.928,863.896 825.428,865.23 826,872.5C 827.133,874.211 828.633,874.711 830.5,874C 831.543,872.024 832.877,871.524 834.5,872.5C 831.457,877.34 827.957,877.674 824,873.5C 822.861,869.579 823.695,866.246 826.5,863.5 Z"/></g>
<g><path style="opacity:1" fill="#131313" d="M 840.5,865.5 C 844.976,865.822 846.476,868.156 845,872.5C 841.509,875.446 839.342,874.612 838.5,870C 838.519,868.167 839.185,866.667 840.5,865.5 Z"/></g>
<g><path style="opacity:1" fill="#e5e5e5" d="M 893.5,859.5 C 897.167,859.5 900.833,859.5 904.5,859.5C 904.548,862.292 903.215,864.125 900.5,865C 904.665,866.483 906.165,869.316 905,873.5C 901.974,876.864 898.474,877.364 894.5,875C 893.507,870.722 894.507,870.389 897.5,874C 902.083,874.934 903.583,873.1 902,868.5C 900.644,867.62 899.144,867.286 897.5,867.5C 897.921,865.09 899.254,863.257 901.5,862C 898.325,862.053 895.658,861.22 893.5,859.5 Z"/></g>
<g><path style="opacity:1" fill="#e2e2e2" d="M 760.5,859.5 C 764.585,858.659 767.585,859.992 769.5,863.5C 769,863.833 768.5,864.167 768,864.5C 766.88,862.925 765.38,861.925 763.5,861.5C 760.604,862.024 759.937,863.524 761.5,866C 763.871,866.735 766.205,867.568 768.5,868.5C 770.224,875.186 767.558,877.686 760.5,876C 757.938,874.732 757.272,872.898 758.5,870.5C 759.762,872.381 761.429,873.714 763.5,874.5C 765.397,874.272 766.73,873.272 767.5,871.5C 764.37,869.909 761.203,868.243 758,866.5C 757.333,865.167 757.333,863.833 758,862.5C 759.045,861.627 759.878,860.627 760.5,859.5 Z"/></g>
<g><path style="opacity:1" fill="#dddddd" d="M 805.5,859.5 C 806.5,859.5 807.5,859.5 808.5,859.5C 808.335,862.518 808.502,865.518 809,868.5C 810.858,865.588 813.358,864.088 816.5,864C 814.649,865.684 812.982,867.517 811.5,869.5C 813.288,871.576 814.954,873.743 816.5,876C 815.5,876.667 814.5,876.667 813.5,876C 812.274,874.365 810.941,872.865 809.5,871.5C 808.548,873.045 808.215,874.712 808.5,876.5C 807.5,876.5 806.5,876.5 805.5,876.5C 805.5,870.833 805.5,865.167 805.5,859.5 Z"/></g>
<g><path style="opacity:1" fill="#eaeaea" d="M 795.5,863.5 C 799.271,862.774 801.937,864.107 803.5,867.5C 801.877,868.476 800.543,867.976 799.5,866C 795.023,865.835 793.523,868.002 795,872.5C 795.739,873.574 796.739,874.241 798,874.5C 799.626,873.711 801.126,872.711 802.5,871.5C 803.731,872.651 803.731,873.817 802.5,875C 794.735,877.575 791.568,874.742 793,866.5C 794.045,865.627 794.878,864.627 795.5,863.5 Z"/></g>
<g><path style="opacity:1" fill="#e8e8e8" d="M 879.5,859.5 C 883.167,859.5 886.833,859.5 890.5,859.5C 890.548,862.292 889.215,864.125 886.5,865C 890.665,866.483 892.165,869.316 891,873.5C 887.974,876.864 884.474,877.364 880.5,875C 879.507,870.722 880.507,870.389 883.5,874C 888.083,874.934 889.583,873.1 888,868.5C 886.644,867.62 885.144,867.286 883.5,867.5C 883.921,865.09 885.254,863.257 887.5,862C 884.325,862.053 881.658,861.22 879.5,859.5 Z"/></g>
<g><path style="opacity:1" fill="#e6e6e6" d="M 818.5,873.5 C 819.5,873.5 820.5,873.5 821.5,873.5C 821.5,874.5 821.5,875.5 821.5,876.5C 820.5,876.5 819.5,876.5 818.5,876.5C 818.5,875.5 818.5,874.5 818.5,873.5 Z"/></g>
<g><path style="opacity:1" fill="#e4e4e4" d="M 739.5,863.5 C 747.845,863.691 750.178,867.524 746.5,875C 738.735,877.575 735.568,874.742 737,866.5C 738.045,865.627 738.878,864.627 739.5,863.5 Z"/></g>
<g><path style="opacity:1" fill="#121212" d="M 740.5,865.5 C 744.976,865.822 746.476,868.156 745,872.5C 741.509,875.446 739.342,874.612 738.5,870C 738.519,868.167 739.185,866.667 740.5,865.5 Z"/></g>
</svg>
